<svg xmlns="http://www.w3.org/2000/svg" xmlns:xlink="http://www.w3.org/1999/xlink" width="560" height="114" viewBox="0 0 560 114">
    <defs>
        <rect id="xv5ze6l09a" width="560" height="114" x="0" y=".687" rx="8"/>
    </defs>
    <g fill="none" fill-rule="evenodd" transform="translate(0 -.687)">
        <mask id="iache3tp3b" fill="#fff">
            <use xlink:href="#xv5ze6l09a"/>
        </mask>
        <use fill="#E2F1FF" xlink:href="#xv5ze6l09a"/>
        <path fill="#F7FCFF" fill-opacity=".5" d="M44.442-36l3.536 3.505-153.442 152.108-3.536-3.505L44.442-36zm21.978 0l3.535 3.505-153.442 152.108-3.535-3.505L66.42-36zm21.978 0l3.535 3.505-153.442 152.108-3.536-3.505L88.398-36zm21.977 0l3.536 3.505-153.442 152.108-3.536-3.505L110.375-36zm21.978 0l3.536 3.505-153.443 152.108-3.535-3.505L132.353-36zm21.978 0l3.535 3.505L4.424 119.613.89 116.108 154.33-36zm21.977 0l3.536 3.505L26.402 119.613l-3.536-3.505L176.308-36zm21.978 0l3.536 3.505L48.379 119.613l-3.535-3.505L198.286-36zm21.978 0l3.535 3.505L70.357 119.613l-3.535-3.505L220.264-36zm21.978 0l3.535 3.505L92.335 119.613l-3.536-3.505L242.242-36zm21.977 0l3.536 3.505-153.442 152.108-3.536-3.505L264.22-36zm21.978 0l3.535 3.505L136.29 119.613l-3.535-3.505L286.197-36zm21.978 0l3.535 3.505-153.442 152.108-3.536-3.505L308.175-36zm21.977 0l3.536 3.505-153.442 152.108-3.536-3.505L330.152-36zm21.978 0l3.536 3.505-153.443 152.108-3.535-3.505L352.13-36zm21.978 0l3.535 3.505-153.442 152.108-3.535-3.505L374.108-36zm21.977 0l3.536 3.505-153.442 152.108-3.536-3.505L396.085-36zm21.978 0l3.536 3.505-153.442 152.108-3.536-3.505L418.063-36zm21.978 0l3.535 3.505-153.442 152.108-3.535-3.505L440.04-36zm21.978 0l3.535 3.505-153.442 152.108-3.536-3.505L462.02-36zm21.977 0l3.536 3.505L334.09 119.613l-3.536-3.505L483.996-36zm21.978 0l3.536 3.505-153.443 152.108-3.535-3.505L505.974-36zm21.978 0l3.535 3.505-153.442 152.108-3.535-3.505L527.952-36zm21.977 0l3.536 3.505-153.442 152.108-3.536-3.505L549.93-36zm21.978 0l3.536 3.505L422 119.613l-3.535-3.505L571.907-36zm21.978 0l3.535 3.505-153.442 152.108-3.535-3.505L593.885-36zm21.978 0l3.535 3.505-153.442 152.108-3.536-3.505L615.863-36zm21.977 0l3.536 3.505-153.442 152.108-3.536-3.505L637.84-36zm21.978 0l3.535 3.505-153.442 152.108-3.535-3.505L659.818-36zm21.978 0l3.535 3.505L531.89 119.613l-3.536-3.505L681.796-36zm21.977 0l3.536 3.505-153.442 152.108-3.536-3.505L703.773-36zm21.978 0l3.536 3.505-153.443 152.108-3.535-3.505L725.75-36zm21.978 0l3.535 3.505-153.442 152.108-3.535-3.505L747.729-36zm21.977 0l3.536 3.505L619.8 119.613l-3.536-3.505L769.706-36zm21.978 0l3.536 3.505-153.442 152.108-3.536-3.505L791.684-36zm21.978 0l3.535 3.505-153.442 152.108-3.535-3.505L813.662-36zm21.978 0l3.535 3.505-153.442 152.108-3.536-3.505L835.64-36zm21.977 0l3.536 3.505L707.71 119.613l-3.536-3.505L857.617-36z" mask="url(#iache3tp3b)"/>
    </g>
</svg>
