<svg xmlns="http://www.w3.org/2000/svg" width="100" height="84" viewBox="0 0 100 84">
    <g fill="none" fill-rule="evenodd">
        <path d="M0 0H100V84H0z"/>
        <g fill-rule="nonzero">
            <g>
                <path fill="#2536B8" d="M36.082 63.154l28.806-16.489c1.483-.848 1.483-2.968 0-3.817L34.222 25.295c-.688-.393-1.535-.393-2.224 0L1.112 42.973c-1.483.849-1.483 2.97 0 3.818l28.586 16.363c1.976 1.128 4.41 1.128 6.384 0z" transform="translate(20 6) translate(0 38)"/>
                <path fill="#2536B8" d="M64.988 36L65 43.944 32 62 32 56.652z" transform="translate(20 6) translate(0 38)"/>
                <path fill="#1B289E" d="M33 63.992v-9.697L0 36v8.202s-.07 1.278 1.128 1.979l28.464 16.648S31.408 64.11 33 63.992z" transform="translate(20 6) translate(0 38)"/>
                <path fill="#121D84" d="M36.082 54.144l28.806-16.665c1.483-.858 1.483-3 0-3.858L35.57 16.66c-1.521-.881-3.396-.881-4.92 0L1.113 33.751c-1.483.857-1.483 3 0 3.858l28.586 16.538c1.976 1.138 4.41 1.138 6.384-.003z" transform="translate(20 6) translate(0 38)"/>
                <path fill="#2536B8" d="M36.082 46.154l28.806-16.489c1.483-.848 1.483-2.968 0-3.817L34.222 8.295c-.688-.393-1.535-.393-2.224 0L1.112 25.973c-1.483.849-1.483 2.97 0 3.818l28.586 16.363c1.976 1.128 4.41 1.128 6.384 0z" transform="translate(20 6) translate(0 38)"/>
                <path fill="#2536B8" d="M64.988 20L65 27.944 32 46 32 40.652z" transform="translate(20 6) translate(0 38)"/>
                <path fill="#1B289E" d="M33 47.992v-9.7L0 20v8.2s-.07 1.278 1.128 1.98l28.467 16.65c-.003 0 1.813 1.28 3.405 1.162z" transform="translate(20 6) translate(0 38)"/>
                <path fill="#5565D4" d="M36.082 38.144l28.806-16.665c1.483-.858 1.483-3 0-3.858L35.57.66c-1.521-.881-3.396-.881-4.92 0L1.113 17.751c-1.483.857-1.483 3 0 3.858l28.586 16.538c1.976 1.138 4.41 1.138 6.384-.003z" transform="translate(20 6) translate(0 38)"/>
                <path fill="#FFF" d="M40 40.45c0 .493.225.691.5.443.277-.249.5-.848.5-1.342 0-.494-.225-.692-.5-.444-.275.249-.5.848-.5 1.342z" transform="translate(20 6) translate(0 38)"/>
                <path fill="#121D84" d="M15 36L11 33.493 11 30 15 32.504zM9 33L5 30.495 5 27 9 29.505z" transform="translate(20 6) translate(0 38)"/>
            </g>
            <g>
                <g>
                    <path fill="#A8B4F7" d="M2.904 40.862c-3.653-3.605-3.653-9.45 0-13.055 3.654-3.604 9.577-3.604 13.23 0 3.654 3.606 3.654 9.45 0 13.055-3.653 3.605-9.576 3.605-13.23 0z" transform="translate(20 6) translate(5) translate(0 30)"/>
                    <path fill="#A8B4F7" d="M12.667 22.965c-.698-4.24 2.22-8.235 6.518-8.923 4.298-.689 8.346 2.19 9.044 6.43.697 4.241-2.22 8.236-6.518 8.924-4.298.688-8.347-2.19-9.044-6.43z" transform="translate(20 6) translate(5) translate(0 30)"/>
                    <path fill="#A8B4F7" d="M19.372 16.831c-2.445 0-4.428-1.956-4.428-4.369 0-2.412 1.983-4.368 4.428-4.368 2.446 0 4.428 1.956 4.428 4.368 0 2.413-1.982 4.37-4.428 4.37zM7.895 23.401c-.392-2.382 1.247-4.626 3.661-5.012 2.414-.387 4.688 1.23 5.08 3.612.392 2.382-1.247 4.626-3.661 5.013-2.414.386-4.688-1.231-5.08-3.613zM28.998 5.07C28.606 2.687 30.245.443 32.66.056c2.414-.386 4.688 1.231 5.08 3.613.392 2.381-1.247 4.626-3.66 5.012-2.415.387-4.689-1.23-5.08-3.613z" transform="translate(20 6) translate(5) translate(0 30)"/>
                    <path fill="#A8B4F7" d="M41.144 21.017c-4.353 0-7.883-3.482-7.883-7.778 0-4.296 3.53-7.778 7.883-7.778s7.883 3.482 7.883 7.778c0 4.296-3.53 7.778-7.883 7.778z" transform="translate(20 6) translate(5) translate(0 30)"/>
                    <path fill="#A8B4F7" d="M51.746 21.87c-3.405 0-6.164-2.723-6.164-6.082s2.76-6.082 6.164-6.082 6.163 2.723 6.163 6.082c0 3.36-2.76 6.082-6.163 6.082z" transform="translate(20 6) translate(5) translate(0 30)"/>
                    <path fill="#A8B4F7" d="M54.921 24.285c-2.01-1.984-2.01-5.201 0-7.185 2.011-1.985 5.272-1.985 7.283 0 2.01 1.984 2.01 5.201 0 7.185-2.011 1.985-5.272 1.985-7.283 0z" transform="translate(20 6) translate(5) translate(0 30)"/>
                    <path fill="#FFF" d="M29.929 6.448c-.392-2.382 1.247-4.627 3.66-5.013 2.415-.386 4.69 1.23 5.081 3.613.392 2.381-1.247 4.625-3.661 5.012-2.414.386-4.688-1.231-5.08-3.612zM28.97 22.602c-2.069-2.042-2.069-5.353 0-7.395 2.07-2.042 5.426-2.042 7.496 0 2.07 2.042 2.07 5.353 0 7.395s-5.425 2.042-7.495 0z" transform="translate(20 6) translate(5) translate(0 30)"/>
                    <path fill="#FFF" d="M32.836 19.948c-3.403 0-6.163-2.723-6.163-6.082s2.76-6.082 6.163-6.082c3.405 0 6.164 2.723 6.164 6.082s-2.76 6.082-6.164 6.082z" transform="translate(20 6) translate(5) translate(0 30)"/>
                    <path fill="#FFCE43" d="M30.287 6.229L30.906 22.417 22.275 18.615 22.275 3.692z" transform="translate(20 6) translate(5) translate(0 30)"/>
                    <path fill="#FFE18C" d="M28.25 7.955s.84 2.976-1.864 5.13c0 0-3.27-1.963-2.025-6.268 1.244-4.307 3.89 1.138 3.89 1.138z" transform="translate(20 6) translate(5) translate(0 30)"/>
                    <path fill="#FFF" d="M42.074 22.396c-4.354 0-7.883-3.482-7.883-7.778 0-4.295 3.53-7.778 7.883-7.778 4.354 0 7.883 3.483 7.883 7.778 0 4.296-3.53 7.778-7.883 7.778z" transform="translate(20 6) translate(5) translate(0 30)"/>
                    <path fill="#FFF" d="M52.674 23.25c-3.403 0-6.163-2.723-6.163-6.082 0-3.36 2.76-6.082 6.163-6.082 3.405 0 6.164 2.723 6.164 6.082s-2.76 6.081-6.164 6.081zM3.028 42.685c-3.653-3.605-3.653-9.45 0-13.055 3.654-3.605 9.578-3.605 13.231 0 3.654 3.605 3.654 9.45 0 13.055-3.653 3.605-9.577 3.605-13.23 0z" transform="translate(20 6) translate(5) translate(0 30)"/>
                    <path fill="#FFF" d="M12.792 24.788c-.697-4.24 2.22-8.235 6.518-8.924 4.298-.688 8.347 2.191 9.044 6.432.698 4.24-2.22 8.235-6.518 8.923-4.297.688-8.346-2.191-9.044-6.431z" transform="translate(20 6) translate(5) translate(0 30)"/>
                    <path fill="#FFF" d="M18.89 41.941c-3.08-3.038-3.08-7.962 0-11 3.077-3.037 8.069-3.037 11.147 0 3.079 3.038 3.079 7.962 0 11-3.078 3.037-8.07 3.037-11.148 0z" transform="translate(20 6) translate(5) translate(0 30)"/>
                    <path fill="#A8B4F7" d="M.83 31.778c.796 4.695 5.301 8.672 10.192 8.262 2.839-.238 5.272-1.705 6.81-3.822 1.387 2.804 4.415 4.62 7.753 4.342 2.925-.245 5.339-2.038 6.488-4.492.34 3.885-2.318 7.487-6.284 8.28-3.284.659-6.503-.802-8.208-3.43-1.282 2.28-3.527 4.013-6.32 4.573C6.197 46.505 1.26 43.277.23 38.282c-.426-2.08-.283-4.736.6-6.504z" transform="translate(20 6) translate(5) translate(0 30)"/>
                    <path fill="#FFF" d="M46.489 26.427c-2.011-1.984-2.011-5.202 0-7.186s5.271-1.984 7.282 0c2.012 1.984 2.012 5.202 0 7.186-2.01 1.984-5.271 1.984-7.282 0zM30.793 38.751c-.653-2.73 1.06-5.467 3.828-6.112 2.768-.645 5.542 1.046 6.196 3.777.653 2.73-1.061 5.467-3.829 6.112-2.768.645-5.541-1.046-6.195-3.777z" transform="translate(20 6) translate(5) translate(0 30)"/>
                    <path fill="#FFF" d="M38.18 39.84c-.596-2.744 1.175-5.445 3.956-6.033 2.78-.588 5.518 1.16 6.114 3.904.596 2.744-1.176 5.445-3.956 6.033-2.781.588-5.519-1.16-6.115-3.904zM19.498 18.653c-2.445 0-4.427-1.956-4.427-4.369 0-2.412 1.982-4.368 4.427-4.368 2.446 0 4.428 1.956 4.428 4.368 0 2.413-1.982 4.369-4.428 4.369zM8.021 25.226c-.392-2.382 1.247-4.626 3.661-5.013 2.414-.386 4.688 1.231 5.08 3.613.392 2.382-1.247 4.625-3.661 5.012-2.414.387-4.688-1.23-5.08-3.612zM29.597 35.309c-4.023-1.644-5.933-6.194-4.267-10.162 1.667-3.969 6.278-5.854 10.3-4.21 4.022 1.644 5.932 6.194 4.266 10.163-1.666 3.968-6.277 5.853-10.3 4.209zM55.852 25.664c-2.011-1.984-2.011-5.201 0-7.186 2.01-1.984 5.271-1.984 7.282 0 2.011 1.985 2.011 5.202 0 7.186-2.01 1.984-5.271 1.984-7.282 0z" transform="translate(20 6) translate(5) translate(0 30)"/>
                </g>
                <g>
                    <path fill="#121D84" d="M27.141 25.905L23.702 23.951 23.192 18.716 26.504 19.471z" transform="translate(20 6) translate(5) translate(13)"/>
                    <path fill="#121D84" d="M21.348 21.07c1.728-.85 3.157-.186 3.995.446.385.291.961-.348 1.015-1.106.689-9.881-6.183-7.409-6.183-7.409l1.173 8.07z" transform="translate(20 6) translate(5) translate(13)"/>
                    <path fill="#2536B8" d="M20.177 33.138s-1.087 4.52-6.743 4.732c-5.656.212-5.558-3.605-5.558-3.605l12.301-1.127zM22.678 22.973c1.728-.851 3.157-.186 3.995.445.385.292.961-.348 1.015-1.106.689-9.88-6.183-7.408-6.183-7.408l1.173 8.069z" transform="translate(20 6) translate(5) translate(13)"/>
                    <path fill="#5565D4" d="M3.82 18.438c.5-5.71 4.487-12.26 6.818-15.953.73-1.153 1.727-2.147 2.859-2.48 1.13.333 2.13 1.327 2.858 2.48 2.331 3.693 6.32 10.243 6.818 15.953.43 4.932-.336 9.872-1.778 13.772l-.062.162c-.363.929-1.217 1.685-2.485 2.41-1.502.859-3.399 1.353-5.351 1.487-1.954-.132-3.85-.628-5.352-1.487-1.268-.725-2.138-1.502-2.502-2.431l-.043-.14C4.156 28.31 3.389 23.37 3.82 18.437z" transform="translate(20 6) translate(5) translate(13)"/>
                    <path fill="#CABFE0" d="M14.737 24.419c-1.471-.851-1.456-3.585.033-6.107 1.489-2.521 3.888-3.875 5.36-3.024 1.47.851 1.455 3.585-.034 6.106-1.49 2.522-3.889 3.876-5.36 3.025z" transform="translate(20 6) translate(5) translate(13)"/>
                    <path fill="#FFF" d="M15.86 25.068c-1.471-.85-1.456-3.585.033-6.106 1.489-2.521 3.888-3.875 5.359-3.024 1.47.85 1.456 3.585-.033 6.106-1.49 2.521-3.889 3.876-5.36 3.024z" transform="translate(20 6) translate(5) translate(13)"/>
                    <path fill="#5565D4" d="M16.411 21.607c0 1.415 1.01 1.984 2.256 1.273 1.245-.712 2.256-2.436 2.256-3.85 0-1.416-1.01-1.985-2.256-1.275-1.246.713-2.256 2.438-2.256 3.852z" transform="translate(20 6) translate(5) translate(13)"/>
                    <path fill="#2536B8" d="M5.992 10.87C7.443 7.605 9.303 4.58 10.63 2.48 11.359 1.327 12.357.333 13.488 0c2.384.294 5.356 6.12 6.81 9.403-1.523 3.16-10.175 4.85-14.306 1.468z" transform="translate(20 6) translate(5) translate(13)"/>
                    <path fill="#121D84" d="M7.73 34.155l1.646-.15c.273 1.125.593 2.258.968 3.398-2.674-.919-2.613-3.248-2.613-3.248z" transform="translate(20 6) translate(5) translate(13)"/>
                    <path fill="#1B289E" d="M9.879 35.615c-.624-.215-1.216-.474-1.755-.782-1.268-.725-2.139-1.503-2.503-2.432l-.043-.14c-1.442-3.9-2.21-8.84-1.778-13.772.247-2.831 1.353-5.87 2.687-8.662 1.358-2.84 4.133-2.848 3.067 1.835-1.555 6.838-2.122 15.175.325 23.953z" transform="translate(20 6) translate(5) translate(13)"/>
                    <path fill="#121D84" d="M9.373 12.442c-1.278-.286-2.456-.793-3.4-1.566C7.358 7.716 10.297.917 13.467.006l.028.008c-1.424 3.107-3.054 7.383-4.123 12.428zM5.601 20.503l2.133 1.145-1.946 5.305.029.989c-.179.108-.351.227-.52.35l-2.138 5.83-2.139-1.164c-.143-.038-.262-.143-.323-.321C-1.69 25.73 5.6 20.503 5.6 20.503z" transform="translate(20 6) translate(5) translate(13)"/>
                    <path fill="#121D84" d="M3.251 22.707l3.812 2.308c-3.194 2.59-4.876 4.481-3.13 11.71L.99 35.036l-.116-.067c-.174-.161-.168-.279-.23-.457-2.384-6.902 2.606-11.805 2.606-11.805z" transform="translate(20 6) translate(5) translate(13)"/>
                    <path fill="#2536B8" d="M7.947 29.087c-1.874 1.14-3.186 3.134-3.915 4.493-.335.624-1.022.73-1.204.202-2.385-6.904 4.905-12.133 4.905-12.133l.214 7.438z" transform="translate(20 6) translate(5) translate(13)"/>
                    <path fill="#FFF" d="M15.088 1.73c.832 1.106 3.287 4.498 4.1 7.071.096.304-.043.632-.328.78-.354.183-.79.02-.932-.347-.42-1.08-1.464-3.394-3.763-6.86-.188-.284-.08-.667.228-.813.245-.116.534-.045.695.169z" transform="translate(20 6) translate(5) translate(13)"/>
                    <path fill="#2536B8" d="M4.464 32.82l-.168 3.622c-.015.334-.489.394-.59.077l-.88-2.737 1.638-.962zM27.668 21.998l-.168 3.62c-.015.335-.488.395-.59.078l-.88-2.737 1.638-.961z" transform="translate(20 6) translate(5) translate(13)"/>
                </g>
            </g>
        </g>
    </g>
</svg>
