<svg xmlns="http://www.w3.org/2000/svg" xmlns:xlink="http://www.w3.org/1999/xlink" width="110" height="100" viewBox="0 0 110 100">
    <defs>
        <path id="prefix__a" d="M17 .693c3.04 0 5.853.76 8.44 2.28 2.507 1.44 4.48 3.414 5.92 5.92 1.52 2.587 2.28 5.4 2.28 8.44 0 3.04-.76 5.854-2.28 8.44-1.44 2.507-3.413 4.48-5.92 5.92-2.587 1.52-5.4 2.28-8.44 2.28-3.04 0-5.853-.76-8.44-2.28-2.507-1.466-4.48-3.453-5.92-5.96-1.52-2.586-2.28-5.386-2.28-8.4 0-3.013.76-5.813 2.28-8.4C4.107 6.427 6.093 4.44 8.6 2.973c2.587-1.52 5.387-2.28 8.4-2.28z"/>
    </defs>
    <g fill="none" fill-rule="evenodd">
        <path d="M0 0L100 0 100 100 0 100z"/>
        <path fill="#E5EAF1" fill-rule="nonzero" d="M84.389 17.778H17.278c-4.656 0-8.347 3.677-8.347 8.264l-.042 49.583c0 4.586 3.733 8.264 8.389 8.264h67.11c4.657 0 8.39-3.678 8.39-8.264V26.042c0-4.587-3.733-8.264-8.39-8.264zm0 57.847H17.278V50.833h67.11v24.792zm0-41.32H17.278v-8.263h67.11v8.264z"/>
        <g>
            <g transform="rotate(45 4.716 125.912) translate(.914 .086)">
                <mask id="prefix__b" fill="#fff">
                    <use xlink:href="#prefix__a"/>
                </mask>
                <use fill="#4B4B4B" xlink:href="#prefix__a"/>
                <g fill="#C3C8CF" mask="url(#prefix__b)">
                    <path d="M0 0H40V40H0z" transform="translate(-3 -2)"/>
                </g>
                <path fill="#F7FBFF" d="M25.36 23.333L19.36 17.333 25.36 11.333 23 8.973 17 14.973 11 8.973 8.64 11.333 14.64 17.333 8.64 23.333 11 25.693 17 19.693 23 25.693z"/>
            </g>
        </g>
    </g>
</svg>
