<svg xmlns="http://www.w3.org/2000/svg" width="77" height="21" viewBox="0 0 77 21">
    <g fill="#7289DA">
        <path d="M11.101 8.842c-.59 0-1.057.575-1.057 1.29 0 .715.477 1.29 1.057 1.29.59 0 1.057-.575 1.057-1.29 0-.715-.477-1.29-1.057-1.29zm-3.781 0c-.59 0-1.057.575-1.057 1.29 0 .715.477 1.29 1.057 1.29.59 0 1.057-.575 1.057-1.29.01-.715-.467-1.29-1.057-1.29z"/>
        <path d="M16.395 0H2.175C.976 0 0 .974 0 2.171v14.19c0 1.197.976 2.172 2.175 2.172H14.21l-.562-1.938 1.358 1.25 1.284 1.175L18.581 21V2.171C18.571.974 17.595 0 16.395 0zM12.3 13.714s-.382-.455-.7-.847c1.39-.392 1.92-1.25 1.92-1.25-.435.286-.848.487-1.22.625-.53.222-1.04.36-1.539.455-1.018.191-1.952.138-2.748-.01-.605-.117-1.125-.276-1.56-.456-.244-.095-.51-.211-.775-.36-.031-.02-.063-.031-.095-.053-.021-.01-.032-.02-.043-.02-.19-.107-.297-.18-.297-.18s.51.836 1.857 1.238c-.318.403-.71.869-.71.869-2.346-.074-3.237-1.6-3.237-1.6 0-3.378 1.528-6.12 1.528-6.12C6.208 4.87 7.65 4.903 7.65 4.903l.106.127c-1.91.54-2.78 1.377-2.78 1.377s.233-.127.626-.297c1.136-.497 2.038-.624 2.409-.667.064-.01.117-.02.18-.02.648-.086 1.38-.107 2.144-.022 1.008.116 2.09.413 3.194 1.006 0 0-.838-.794-2.642-1.334l.148-.17s1.454-.032 2.972 1.102c0 0 1.528 2.742 1.528 6.12 0-.01-.892 1.515-3.237 1.59zm16.024-9.181H24.8v3.95l2.345 2.107V6.756h1.252c.796 0 1.189.382 1.189.996v2.933c0 .615-.371 1.028-1.189 1.028H24.79v2.234h3.524c1.888.01 3.66-.932 3.66-3.092V7.699c.011-2.203-1.76-3.166-3.65-3.166zm18.465 6.322v-3.24c0-1.166 2.101-1.43 2.738-.266l1.942-.783c-.764-1.673-2.154-2.16-3.311-2.16-1.89 0-3.757 1.09-3.757 3.208v3.24c0 2.14 1.868 3.21 3.714 3.21 1.189 0 2.61-.583 3.396-2.108l-2.08-.953c-.51 1.303-2.642.985-2.642-.148zm-6.42-2.796c-.733-.159-1.22-.424-1.253-.879.043-1.09 1.73-1.133 2.717-.085l1.56-1.196c-.976-1.186-2.08-1.504-3.215-1.504-1.73 0-3.407.974-3.407 2.817 0 1.79 1.38 2.753 2.897 2.986.775.106 1.635.413 1.613.943-.063 1.006-2.143.953-3.088-.19l-1.507 1.408c.881 1.133 2.08 1.705 3.205 1.705 1.73 0 3.65-.996 3.725-2.817.106-2.298-1.57-2.88-3.247-3.188zm-7.11 5.877h2.377V4.533h-2.377v9.403zm40.08-9.403h-3.522v3.95l2.345 2.107V6.756h1.252c.796 0 1.189.382 1.189.996v2.933c0 .615-.372 1.028-1.189 1.028h-3.608v2.234h3.534c1.889.01 3.661-.932 3.661-3.092V7.699c0-2.203-1.772-3.166-3.661-3.166zm-17.286-.128c-1.952 0-3.894 1.06-3.894 3.23v3.21c0 2.149 1.952 3.23 3.915 3.23 1.953 0 3.895-1.081 3.895-3.23v-3.21c0-2.16-1.963-3.23-3.916-3.23zm1.528 6.44c0 .677-.764 1.026-1.517 1.026-.764 0-1.528-.328-1.528-1.027V7.635c0-.688.742-1.059 1.485-1.059.775 0 1.56.329 1.56 1.06v3.208zm10.92-3.21c-.053-2.202-1.56-3.092-3.502-3.092H61.23v9.404h2.409v-2.986h.424l2.186 2.986h2.971l-2.568-3.23c1.136-.36 1.847-1.345 1.847-3.082zm-3.46 1.271h-1.4v-2.15h1.4c1.497 0 1.497 2.15 0 2.15z"/>
    </g>
</svg>
