<svg xmlns="http://www.w3.org/2000/svg" width="205" height="205" viewBox="0 0 205 205">
    <g fill="none" fill-rule="evenodd">
        <g>
            <g>
                <g>
                    <g>
                        <g>
                            <g fill-rule="nonzero">
                                <path fill="#D3D9FB" d="M.88 130.936l101.925-58.728c1.181-.679 3.259-.594 4.622.191l48.84 28.14c.26.15.477.316.646.487l7.413 4.272c1.363.784 1.51 1.982.332 2.664l-98.679 59.134c-1.181.678-6.504.187-7.867-.598l-48.841-28.14c-.26-.15-.476-.315-.645-.487L1.213 133.6c-1.36-.788-1.51-1.986-.332-2.664z" transform="translate(-827 -282) translate(240 64) translate(587 218) matrix(-1 0 0 1 193.383 18.45) translate(.478) translate(17.202 4.1)"/>
                                <path fill="#7989E9" d="M11.035 59.372v-.004-.009-.025c.004-.034.004-.069.007-.103l.009-.082v-.012-.01c.003-.03.01-.065.016-.1l.018-.1.004-.012.003-.013c.006-.022.009-.047.015-.069l.025-.097c.003-.016.01-.031.013-.047.003-.006.003-.012.006-.019.003-.009.006-.022.01-.03.009-.032.018-.067.03-.101.01-.031.023-.063.032-.094v-.006l.037-.1.038-.1c.003-.01.006-.02.013-.026l.009-.018c.006-.02.016-.035.022-.054.012-.031.028-.062.044-.094.012-.025.021-.047.034-.072l.006-.009c.003-.003.003-.006.006-.01.016-.03.029-.059.044-.09.016-.028.031-.057.044-.085l.019-.037c.003-.007.006-.01.01-.016.005-.012.012-.022.018-.034.015-.029.034-.06.05-.088.019-.028.034-.06.053-.088.003-.003.003-.006.006-.01.003-.002.006-.008.01-.012.018-.03.037-.062.059-.09.019-.029.037-.057.06-.085l.037-.056.019-.028c.03-.047.065-.091.1-.135.012-.016.022-.028.03-.044l.007-.006c.044-.056.088-.113.135-.166l.018-.022c.007-.006.013-.012.02-.022l.046-.056.081-.091c.01-.013.022-.022.032-.034.006-.007.012-.013.015-.02.01-.009.019-.021.031-.03.029-.029.054-.057.082-.082l.062-.06.013-.012.01-.01c.027-.027.059-.056.09-.08.031-.029.062-.057.094-.082l.003-.003.003-.003.09-.076.097-.075c.003-.003.01-.006.013-.01.003-.002.01-.005.012-.008l.072-.054.097-.069.028-.018c.003-.003.007-.003.01-.007h.003c.019-.012.037-.025.06-.037.03-.022.065-.04.096-.06l2.323-1.343.009.007L108.94.554l.006-.003.141-.081c.106-.063.234-.135.25-.144.031-.02.066-.035.097-.05l.097-.047c.031-.016.066-.029.097-.044.034-.016.069-.028.1-.041.034-.013.065-.025.1-.034.035-.013.072-.022.106-.032.004 0 .004 0 .006-.003.003 0 .007 0 .01-.003.031-.01.06-.016.09-.025l.047-.01c.013-.003.026-.006.038-.006.01-.003.019-.003.028-.006.037-.006.072-.012.11-.016h.009c.044-.006.084-.009.124-.009h.135c.006 0 .013 0 .019.003l.087.01c.016.003.032.003.047.006.004 0 .007.003.01.003.059.01.112.022.169.04l.012.004c.007.003.012.006.016.006.068.025.137.053.197.088 0 0 3.864 2.607 3.798 2.582-.025-.009-95.301 54.197-95.301 54.197s-2.39 1.345-2.42 1.367c-.032.022-.066.041-.097.063-.035.022-.066.044-.097.069-.032.022-.066.047-.097.072l-.04.031c-.054.04-.104.082-.154.122-.05.044-.064.111-.114.158-.006.006-.012.013-.019.016-.046.044-.172.012-.216.059l-.022.022c-.044.044-.088.09-.131.137-.007.01-.016.016-.022.026-.044.046-.085.093-.125.144l-.063.075-.075.094c-.028.037-.056.072-.081.11l-.053.071c-.016.022-.028.044-.044.066-.025.037-.053.075-.078.116l-.019.031-.1.16c-.003.003-.006.009-.006.012-.035.057-.066.113-.097.172l-.01.02c-.028.055-.059.112-.084.168-.003.006-.006.016-.01.022l-.074.17-.01.024c-.022.057-.043.113-.065.166l-.01.025-.056.17c-.003.009-.006.015-.006.024-.016.057-.035.113-.047.17-.003.006-.003.015-.006.021l-.038.17-.016.084-.015.1c-.003.034-.01.069-.013.103-.003.035-.006.07-.006.104-.003.037-.003.075-.003.11v.084s0 .056.003.153l.228 8.48 1.479.796s-.035.019-.085.05l1.623.873s-.691.401-.725.423c-.032.022-.066.041-.097.063-.035.022-.066.043-.097.069-.032.021-.066.047-.097.072l-.04.031c-.054.04-.104.081-.154.122l-.15.132c-.006.006-.012.012-.019.015-.047.044-.093.088-.137.135l-.022.022c-.044.044-.088.09-.131.138-.007.009-.016.015-.022.024-.044.048-.085.095-.125.144l-.063.075-.075.095c-.028.037-.056.072-.081.11l-.053.071c-.016.022-.028.044-.044.066-.025.038-.053.075-.078.115l-.019.032-.1.16c-.003.003-.006.01-.006.012-.035.057-.066.113-.097.172l-.01.02c-.028.056-.059.112-.084.168-.003.007-.006.016-.01.022l-.074.17-.01.024-.065.166-.01.025-.056.17c-.003.009-.006.015-.006.024-.016.057-.035.113-.047.17-.003.006-.003.015-.006.021l-.038.17-.016.084-.009.06 1.16 43.33c.006.272.828 1.975.606 1.847l-.612-.557.35 13.088c.006.273 1.25 2.587 1.028 2.46 0 0-1.125-.547-1.222-.603l-2.957-2.176c-.475-.432-.938-.873-.957-1.565l-1.331-57.023c-.007-.273-.02-.68-.02-.68v-.085c0-.025 0-.047.004-.072v-.003-.01-.024c.003-.035.003-.07.006-.103l.01-.082v-.012-.01c.003-.013.003-.025.006-.037l-.353-13.261c-.007-.273-.02-.68-.02-.68v-.084c.013-.047.016-.072.016-.097z" transform="translate(-827 -282) translate(240 64) translate(587 218) matrix(-1 0 0 1 193.383 18.45) translate(.478) translate(17.202 4.1)"/>
                                <path fill="#22009C" d="M17.964 66.165c-1.3.755-2.194.012-2.16 1.29l1.303 60.388c.034 1.278 1.225 1.682 2.525.93l95.699-55.545c1.3-.755 2.322-2.399 2.289-3.677l-1.545-57.979c-.033-1.277-1.112-1.703-2.412-.949L17.964 66.165z" transform="translate(-827 -282) translate(240 64) translate(587 218) matrix(-1 0 0 1 193.383 18.45) translate(.478) translate(17.202 4.1)"/>
                                <path fill="#22009C" d="M18.091 58.65c-1.3.755-2.321 2.4-2.288 3.677l1.431 58c.034 1.277 1.225 1.68 2.524.93l95.654-55.544c1.3-.755 2.24 2.092 2.208.814l-1.46-62.471c-.034-1.278-1.112-1.704-2.411-.95L18.09 58.65z" transform="translate(-827 -282) translate(240 64) translate(587 218) matrix(-1 0 0 1 193.383 18.45) translate(.478) translate(17.202 4.1)"/>
                                <path fill="#2536B8" d="M17.171 65.086c-.044-1.075.923-2.517 2.159-3.22l90.965-51.918c1.236-.704 2.268-.406 2.312.669l.276 7.043c.037.113.062.242.068.383l1.251 48.852c.044 1.074-1.354 3.047-2.587 3.75l-89.87 51.291c-1.236.703-2.271.405-2.312-.67l-.279-7.043c-.037-.116-.062-.241-.068-.386L17.17 65.086z" transform="translate(-827 -282) translate(240 64) translate(587 218) matrix(-1 0 0 1 193.383 18.45) translate(.478) translate(17.202 4.1)"/>
                                <path fill="#7989E9" d="M18.536 139.401l.029-3.822 3.698 2.373.793-1.836 92.703-53.679c1.115-.648 3.335-.566 4.623.182l40.163 23.112v-.645l6.1 2.974.858-.349-.116 2.823c-.094.616-.329.87-.709 1.088L70.205 167.63c-1.116.648-3.087.639-4.375-.107l-46.228-26.729c-.705-.409-1.062-.915-1.066-1.412v.02z" transform="translate(-827 -282) translate(240 64) translate(587 218) matrix(-1 0 0 1 193.383 18.45) translate(.478) translate(17.202 4.1)"/>
                                <path fill="#B0BAF5" d="M70.232 163.564l96.518-55.785c1.116-.647.975-1.783-.314-2.53l-46.25-26.73c-1.29-.748-3.258-.83-4.378-.183L19.29 134.121c-1.117.647-.976 1.783.313 2.53l46.254 26.73c1.289.748 3.258.83 4.375.183z" transform="translate(-827 -282) translate(240 64) translate(587 218) matrix(-1 0 0 1 193.383 18.45) translate(.478) translate(17.202 4.1)"/>
                                <path fill="#5565D4" d="M113.91 88.789c.135.082.409.047.611-.075l5.635-3.379c.202-.122.259-.288.124-.366l-3.733-2.241c-.135-.082-.41-.047-.612.075l-5.634 3.378c-.203.123-.26.286-.124.367l3.732 2.24zM107.76 99.038c.135.082.41.05.614-.075l5.634-3.379c.202-.122.256-.285.12-.367l-3.733-2.24c-.133-.08-.407-.048-.61.075l-5.633 3.378c-.205.123-.26.288-.127.367l3.734 2.241zM111.175 103.822c.135.082.41.047.612-.075l5.636-3.38c.2-.119.26-.285.124-.366l-3.733-2.242c-.133-.079-.411-.044-.61.075l-5.636 3.38c-.202.122-.26.289-.127.366l3.734 2.242zM120.745 104.505c.132.082.407.048.609-.072l5.636-3.38c.203-.119.257-.285.124-.366l-3.734-2.242c-.132-.082-.41-.048-.612.072l-5.636 3.38c-.202.122-.256.285-.121.366l3.734 2.242zM136.44 101.775c.135.076.41.044.613-.07l5.652-3.177c.203-.116.26-.269.124-.345l-4.397-2.476c-.133-.074-.411-.044-.614.07l-5.652 3.178c-.202.115-.257.271-.123.344l4.397 2.476zM126.446 107.93c.144.086.49.016.773-.154l7.852-4.71c.282-.17.397-.376.253-.463l-4.663-2.8c-.142-.084-.491-.017-.773.153l-7.852 4.71c-.286.17-.395.38-.257.463l4.667 2.8zM75.582 136.637c.114.064.373.021.577-.1l5.704-3.327c.208-.12.284-.275.171-.34l-1.64-.956c-.114-.066-.376-.022-.584.098l-5.704 3.328c-.204.12-.28.272-.167.336l1.643.96zM68.751 141.42c.114.065.373.021.577-.098l5.702-3.329c.208-.12.284-.274.17-.339l-1.642-.957c-.113-.065-.375-.021-.583.098l-5.701 3.329c-.205.12-.282.271-.169.336l1.646.96zM59.815 146.204c.111.065.37.018.576-.103l5.75-3.356c.207-.122.29-.275.18-.336l-1.595-.931c-.108-.063-.373-.016-.579.102l-5.75 3.356c-.207.122-.287.275-.18.337l1.598.93zM65.282 140.054c.11.065.37.018.576-.103l5.75-3.356c.207-.122.29-.274.179-.336l-1.594-.931c-.108-.063-.373-.016-.58.102l-5.75 3.356c-.206.122-.286.275-.179.337l1.598.93zM86.05 131.157c.143.08.428.046.642-.074l38.24-21.509c.207-.116.27-.282.128-.358l-4.572-2.575c-.138-.076-.431-.043-.639.074L81.61 128.22c-.213.12-.27.285-.132.361l4.573 2.575z" transform="translate(-827 -282) translate(240 64) translate(587 218) matrix(-1 0 0 1 193.383 18.45) translate(.478) translate(17.202 4.1)"/>
                                <path fill="#5565D4" d="M127.468 106.598c.01.006.037-.003.058-.015l4.413-2.522c.025-.012.037-.03.028-.033l-.278-.16c-.01-.006-.038.003-.059.016l-4.412 2.521c-.025.015-.038.03-.029.034l.279.159zM138.473 99.08c.01.006.03.003.041-.004l2.328-1.163c.012-.007.016-.017.004-.02l-.346-.173c-.011-.006-.03-.003-.042.004l-2.327 1.163c-.012.007-.016.017-.004.02l.346.173zM112.544 108.606c.133.081.407.047.612-.076l5.633-3.378c.199-.12.26-.289.127-.367l-3.733-2.24c-.133-.082-.413-.048-.616.075l-5.632 3.378c-.205.123-.26.289-.124.37l3.733 2.238zM104.344 113.39c.133.08.411.046.61-.073l5.634-3.38c.202-.122.26-.289.127-.367l-3.734-2.243c-.133-.08-.413-.047-.615.076l-5.635 3.38c-.2.12-.256.285-.12.367l3.733 2.24zM96.828 118.172c.132.082.41.047.61-.072l5.636-3.381c.202-.123.256-.286.123-.367l-3.733-2.24c-.133-.083-.41-.048-.612.071l-5.637 3.378c-.202.123-.256.286-.12.368l3.733 2.243zM88.624 122.956c.132.081.407.047.612-.076l5.635-3.378c.205-.123.26-.288.126-.367l-3.732-2.24c-.133-.082-.41-.048-.615.075l-5.635 3.378c-.202.123-.256.285-.12.367l3.729 2.24zM80.425 127.74c.133.08.41.046.616-.076l5.633-3.379c.202-.122.256-.285.124-.367l-3.734-2.24c-.133-.082-.41-.047-.612.072l-5.633 3.378c-.205.123-.26.288-.127.37l3.733 2.241zM72.226 131.839c.133.082.41.047.612-.075l5.634-3.379c.201-.122.259-.288.127-.366l-3.734-2.241c-.133-.082-.41-.047-.616.075l-5.633 3.378c-.202.123-.256.288-.124.367l3.734 2.24zM54.008 142.772c.14.083.435.047.649-.078l16.288-9.455c.215-.125.272-.295.131-.376l-3.96-2.301c-.141-.083-.436-.048-.65.077l-16.288 9.455c-.215.125-.272.296-.131.377l3.96 2.3zM102.976 107.922c.136.08.405.05.61-.073l5.636-3.38c.202-.123.26-.286.124-.367l-3.734-2.242c-.132-.079-.407-.047-.61.075l-5.635 3.38c-.205.123-.257.286-.124.364l3.733 2.243zM94.78 112.706c.135.081.41.047.608-.076l5.637-3.382c.2-.12.256-.285.121-.363l-3.734-2.242c-.132-.078-.407-.047-.606.072l-5.64 3.383c-.202.119-.256.285-.124.366l3.737 2.242zM86.575 117.489c.136.082.41.047.612-.075l5.634-3.38c.199-.12.263-.286.126-.367l-3.733-2.242c-.133-.078-.413-.043-.612.076l-5.634 3.38c-.202.122-.26.288-.127.366l3.734 2.242zM79.06 122.273c.136.08.408.047.61-.076l5.635-3.379c.203-.122.26-.285.125-.367l-3.736-2.242c-.133-.078-.407-.046-.609.075l-5.635 3.38c-.203.122-.257.285-.124.367l3.735 2.242zM70.86 127.056c.135.081.41.047.609-.076l5.637-3.38c.202-.123.26-.286.123-.367l-3.733-2.24c-.133-.079-.408-.047-.61.075l-5.637 3.38c-.201.123-.256.286-.123.367l3.733 2.24zM62.66 131.156c.135.081.407.047.609-.075l5.634-3.38c.205-.122.262-.285.126-.367l-3.733-2.241c-.133-.078-.408-.047-.613.075l-5.634 3.38c-.202.122-.256.285-.123.366l3.733 2.242zM54.46 135.939c.136.082.407.047.61-.075l5.638-3.383c.202-.122.256-.282.12-.363l-3.734-2.242c-.133-.078-.408-.047-.607.072l-5.638 3.383c-.202.122-.256.285-.123.366l3.734 2.242zM99.558 103.822c.136.08.41.05.615-.072l5.635-3.381c.2-.12.257-.285.121-.367l-3.733-2.242c-.132-.079-.407-.047-.609.072l-5.636 3.38c-.202.123-.26.289-.126.367l3.733 2.243zM91.358 108.606c.136.08.41.047.612-.072l5.636-3.38c.202-.122.259-.285.124-.37l-3.734-2.241c-.132-.078-.407-.047-.612.075l-5.636 3.38c-.199.119-.256.284-.123.366l3.733 2.242zM83.842 113.388c.136.082.41.05.615-.075l5.634-3.379c.202-.122.256-.285.12-.367l-3.733-2.24c-.133-.08-.407-.048-.609.075l-5.634 3.378c-.204.123-.26.289-.126.367l3.733 2.241zM75.642 118.171c.135.082.406.05.612-.072l5.635-3.378c.202-.123.26-.286.123-.37l-3.732-2.241c-.133-.079-.407-.047-.612.075l-5.635 3.379c-.202.122-.257.285-.124.367l3.733 2.24zM67.443 122.272c.136.082.41.047.61-.072l5.636-3.38c.205-.123.26-.286.12-.368l-3.733-2.243c-.133-.078-.407-.046-.609.076l-5.637 3.381c-.199.12-.253.285-.123.364l3.736 2.242zM59.243 127.056c.135.081.41.047.615-.076l5.634-3.379c.199-.12.256-.285.12-.367l-3.733-2.241c-.133-.079-.41-.047-.61.075l-5.634 3.38c-.205.122-.259.288-.126.366l3.734 2.242zM51.725 131.839c.136.081.41.047.612-.072l5.636-3.381c.202-.122.26-.285.12-.367l-3.732-2.243c-.133-.078-.407-.047-.61.076l-5.635 3.38c-.202.123-.256.286-.124.368l3.733 2.239zM116.006 94.937c.137.085.415.049.623-.076l9.675-5.987c.204-.128.262-.302.125-.387l-3.781-2.342c-.134-.082-.412-.05-.62.079l-9.674 5.987c-.205.128-.263.302-.129.384l3.781 2.342zM38.11 133.204c.137.085.414.049.62-.08l9.675-5.986c.202-.124.26-.298.125-.383l-3.78-2.342c-.138-.085-.42-.049-.62.076l-9.677 5.986c-.205.128-.263.298-.125.384l3.781 2.345zM118.948 99.04c.145.08.435.046.653-.076l12.157-6.806c.216-.122.277-.285.135-.366l-3.984-2.233c-.142-.078-.435-.046-.653.075l-12.157 6.808c-.22.121-.277.286-.135.365l3.984 2.232zM127.817 99.721c.141.084.436.048.651-.077l8.076-4.673c.214-.125.275-.296.13-.376l-3.97-2.3c-.14-.083-.436-.048-.65.078l-8.076 4.672c-.214.126-.272.297-.131.377l3.97 2.299zM106.392 94.256c.136.081.407.047.616-.075l5.63-3.379c.203-.122.26-.288.125-.367l-3.735-2.24c-.135-.082-.41-.048-.612.074l-5.632 3.379c-.204.122-.259.288-.123.37l3.731 2.238zM98.192 97.673c.136.08.41.047.612-.076l5.635-3.378c.202-.123.26-.286.124-.367l-3.733-2.24c-.135-.083-.41-.048-.612.074l-5.634 3.379c-.202.122-.26.288-.124.366l3.732 2.242zM89.995 102.455c.136.081.407.05.61-.072l5.635-3.38c.202-.122.256-.285.124-.367l-3.733-2.242c-.136-.08-.41-.047-.612.072l-5.636 3.38c-.206.122-.257.285-.121.367l3.733 2.242zM81.794 107.923c.136.08.41.047.613-.076l5.631-3.378c.205-.123.26-.289.124-.367l-3.734-2.241c-.136-.081-.41-.047-.612.075l-5.632 3.378c-.202.123-.26.286-.124.368l3.734 2.24zM74.28 112.705c.134.081.406.05.608-.072l5.633-3.38c.206-.123.26-.289.124-.367l-3.734-2.242c-.135-.081-.41-.047-.612.075l-5.633 3.38c-.205.122-.256.285-.12.367l3.733 2.239zM66.074 117.489c.137.081.411.047.613-.072l5.637-3.382c.203-.122.257-.285.12-.367l-3.733-2.24c-.136-.082-.41-.047-.61.071l-5.637 3.383c-.199.118-.256.284-.12.366l3.73 2.241zM57.876 121.59c.136.08.41.046.612-.076l5.633-3.377c.205-.122.26-.288.126-.37l-3.732-2.24c-.136-.081-.41-.046-.615.075l-5.633 3.378c-.202.121-.26.284-.123.366l3.732 2.243zM49.677 126.372c.136.08.408.05.61-.073l5.638-3.381c.2-.12.257-.285.12-.366l-3.732-2.241c-.136-.081-.41-.047-.61.072l-5.638 3.381c-.202.122-.256.285-.12.367l3.732 2.24zM45.219 130.631c.099-.054.22-.093.348-.109.124-.015.226 0 .293.037l3.952 2.155c.067.036.095.093.07.163-.029.07-.1.136-.198.19l-1.558.85 5.184 2.827c.067.037.092.094.067.163-.026.07-.1.135-.201.19l-4.019 2.188c-.102.054-.223.097-.35.11-.128.014-.23 0-.298-.037l-9.396-5.125c-.067-.036-.092-.093-.067-.162.026-.07.1-.136.201-.193l5.972-3.247z" transform="translate(-827 -282) translate(240 64) translate(587 218) matrix(-1 0 0 1 193.383 18.45) translate(.478) translate(17.202 4.1)"/>
                                <path fill="#5565D4" d="M128.834 97.715c.01.006.038-.004.059-.016l4.413-2.521c.024-.012.037-.03.027-.033l-.278-.16c-.01-.006-.037.003-.058.016l-4.413 2.521c-.025.015-.037.03-.028.034l.278.159z" transform="translate(-827 -282) translate(240 64) translate(587 218) matrix(-1 0 0 1 193.383 18.45) translate(.478) translate(17.202 4.1)"/>
                            </g>
                            <g fill-rule="nonzero">
                                <path fill="#FFF" d="M3.356 18.645L35.602.352c1.765-1.003 3.258.215 3.315 2.701l.287 12.551c0 .013 0 .026.004.041l.51 22.296c.055 2.354-1.1 4.48-3.03 5.574L7.065 60.32C4.364 61.853.89 59.648.813 56.348L.526 43.782v-.023L.09 24.662c-.061-2.543 1.187-4.837 3.267-6.017z" transform="translate(-827 -282) translate(240 64) translate(587 218) matrix(-1 0 0 1 193.383 18.45) translate(.478) translate(86.219 27.333)"/>
                                <path fill="#D3D9FB" d="M14.322 44.643c-4.572-2.047-5.32-10.384-1.673-18.623 3.65-8.24 10.313-13.26 14.885-11.213 4.573 2.046 5.321 10.384 1.672 18.623-3.648 8.24-10.312 13.26-14.884 11.213z" transform="translate(-827 -282) translate(240 64) translate(587 218) matrix(-1 0 0 1 193.383 18.45) translate(.478) translate(86.219 27.333)"/>
                                <path fill="#2536B8" d="M17.427 40.134c-.854.588-1.85-.337-1.578-1.471.262-1.104.59-2.143.859-2.6.242-.408.531-.73.788-1.011.263-.29.609-.702.943-1.104.11-.133.224-.269.334-.399l.678-.84c.101-.152.202-.3.304-.452.018-.025.053-.071.071-.105.01-.056.007-.118.01-.17l.07-1.082c-.258-.174-.405-.557-.44-1.067-.445.318-.52-.368-.544-.857-.018-.346-.023-1.22.326-1.548-.006-.056-.012-.109-.019-.152-.041-.288-.074-.584-.062-.918.012-.334.072-.708.2-1.076.03-.087.072-.18.117-.247-.003-.115.029-.26.068-.393.29-1.036.833-1.963 1.387-2.535.556-.572 1.12-.823 1.639-.906.382-.062.883.003.865.82-.003.104-.023.21-.056.308.074-.043.128.016.161.084.104.207.13.522.11.862-.02.34-.086.705-.158 1.07-.012.056-.02.118-.033.182.427-.302.308.749.245 1.178-.077.535-.227 1.34-.633 1.648-.036.238-.083.48-.152.724-.101.355-.236.67-.388.958 0 .006.003.006.003.013l-.071 1.113c-.004.03-.012.092-.012.13.005-.025.068.037.083.046l.176.108s0-.003.003-.003l.17-.03.003-.007.042-.01c.114-.027.227-.043.343-.055l.015-.003c.146-.013.293-.019.44-.022.262-.006.527-.08.784-.074.635.015 1.471.72 1.533 2.52.03.844-.334 1.654-.946 2.09l-7.678 5.283zm1.582-11.18l.009.125c-.006-.038-.006-.08-.01-.124z" transform="translate(-827 -282) translate(240 64) translate(587 218) matrix(-1 0 0 1 193.383 18.45) translate(.478) translate(86.219 27.333)"/>
                                <path fill="#D3D9FB" d="M15.973 50.567c1.792 0 3.737-.595 5.712-1.767 7.458-4.43 13.403-15.945 13.249-25.665-.08-5.069-1.834-8.937-4.813-10.611-2.589-1.457-5.879-1.15-9.266.86-7.458 4.43-13.403 15.944-13.249 25.664.078 5.07 1.833 8.937 4.812 10.611 1.08.607 2.28.908 3.555.908zM26.57 12.173c1.182 0 2.29.278 3.283.834 2.803 1.577 4.451 5.27 4.53 10.134.148 9.543-5.671 20.837-12.978 25.179-3.209 1.905-6.3 2.208-8.713.853-2.803-1.577-4.45-5.271-4.53-10.134-.147-9.543 5.675-20.84 12.978-25.179 1.888-1.122 3.737-1.687 5.43-1.687z" transform="translate(-827 -282) translate(240 64) translate(587 218) matrix(-1 0 0 1 193.383 18.45) translate(.478) translate(86.219 27.333)"/>
                            </g>
                            <g fill-rule="nonzero">
                                <path fill="#FFF" d="M6.035 19.067L37.73.359c1.736-1.024 3.201.22 3.256 2.762l.28 12.832c0 .012 0 .028.004.04l.5 22.797c.05 2.407-1.085 4.582-2.98 5.7L9.68 61.676c-2.657 1.567-6.071-.686-6.144-4.06l-.284-12.85v-.023l-.43-19.528c-.057-2.596 1.17-4.94 3.214-6.147z" transform="translate(-827 -282) translate(240 64) translate(587 218) matrix(-1 0 0 1 193.383 18.45) translate(.478) translate(39.752 51.25)"/>
                                <path fill="#00B1BB" d="M11.733 44.162l22.555-13.208c1.121-.657 2.027-2.383 2.015-3.837l-.022-2.861c-.012-1.453-.936-2.107-2.057-1.45L11.668 36.014c-1.121.656-2.027 2.382-2.015 3.835l.022 2.863c.012 1.453.936 2.103 2.058 1.45zM11.05 33.228L33.604 20.02c1.12-.657 2.027-2.383 2.015-3.836l-.022-2.862c-.012-1.453-.937-2.106-2.058-1.45L10.985 25.08c-1.121.657-2.027 2.383-2.015 3.836l.021 2.862c.013 1.453.94 2.106 2.058 1.45z" transform="translate(-827 -282) translate(240 64) translate(587 218) matrix(-1 0 0 1 193.383 18.45) translate(.478) translate(39.752 51.25)"/>
                                <path fill="#FFF" d="M29.47 29.483L30.244 29.131 29.691 28.905 30.222 28.185 30.78 28.408 30.765 27.736 31.536 27.387 31.547 28.059 32.086 27.333 32.639 27.556 32.101 28.282 32.875 27.931 32.886 28.597 32.116 28.952 32.669 29.178 32.134 29.898 31.58 29.672 31.592 30.344 30.825 30.696 30.81 30.023 30.271 30.75 29.72 30.524 30.259 29.798 29.485 30.153zM25.37 32.22L26.144 31.865 25.587 31.638 26.122 30.918 26.68 31.145 26.665 30.472 27.435 30.12 27.447 30.793 27.986 30.067 28.536 30.292 28.001 31.016 28.775 30.663 28.786 31.333 28.012 31.685 28.569 31.912 28.034 32.631 27.477 32.405 27.492 33.081 26.721 33.43 26.709 32.757 26.171 33.483 25.617 33.26 26.156 32.534 25.381 32.886zM20.586 34.266L21.357 33.915 20.804 33.688 21.339 32.969 21.893 33.192 21.881 32.519 22.648 32.17 22.663 32.843 23.202 32.117 23.752 32.34 23.214 33.066 23.988 32.714 24.003 33.38 23.229 33.735 23.786 33.962 23.251 34.681 22.693 34.455 22.705 35.128 21.937 35.48 21.926 34.807 21.387 35.533 20.833 35.307 21.372 34.581 20.598 34.936zM16.486 37.003L17.261 36.648 16.707 36.422 17.239 35.702 17.796 35.928 17.781 35.256 18.552 34.904 18.563 35.576 19.102 34.85 19.656 35.076 19.117 35.799 19.892 35.447 19.903 36.117 19.132 36.468 19.686 36.695 19.151 37.415 18.597 37.188 18.608 37.864 17.841 38.213 17.826 37.54 17.287 38.267 16.737 38.044 17.276 37.317 16.501 37.669zM13.07 38.366L13.844 38.015 13.287 37.788 13.822 37.065 14.38 37.291 14.365 36.619 15.136 36.27 15.147 36.943 15.686 36.217 16.236 36.44 15.701 37.166 16.475 36.813 16.486 37.48 15.712 37.835 16.269 38.059 15.734 38.781 15.177 38.555 15.192 39.228 14.421 39.58 14.41 38.907 13.871 39.633 13.317 39.407 13.856 38.681 13.081 39.036zM13.963 27.873l17.202-10.478c.531-.323.996-1.084 1.035-1.695.04-.61-.362-.844-.89-.521L14.108 25.657c-.531.323-.996 1.084-1.035 1.695-.042.608.359.841.89.521z" transform="translate(-827 -282) translate(240 64) translate(587 218) matrix(-1 0 0 1 193.383 18.45) translate(.478) translate(39.752 51.25)"/>
                                <path fill="#2536B8" d="M12.416 55.778L34.972 42.57c1.12-.657 2.027-2.383 2.014-3.836l-.021-2.862c-.012-1.453-.937-2.106-2.058-1.45L12.351 47.63c-1.12.657-2.027 2.383-2.015 3.836l.022 2.862c.012 1.453.937 2.107 2.058 1.45z" transform="translate(-827 -282) translate(240 64) translate(587 218) matrix(-1 0 0 1 193.383 18.45) translate(.478) translate(39.752 51.25)"/>
                                <path fill="#FFF" d="M16.013 51.789l17.202-10.477c.531-.324.996-1.085 1.035-1.695.04-.611-.362-.844-.89-.522L16.158 49.572c-.532.324-.996 1.084-1.036 1.695-.039.608.363.844.89.522z" transform="translate(-827 -282) translate(240 64) translate(587 218) matrix(-1 0 0 1 193.383 18.45) translate(.478) translate(39.752 51.25)"/>
                                <path fill="#00B1BB" d="M1.66 27.04c-1.873-1.003-2.107-4.287-.523-7.332 1.584-3.046 4.387-4.702 6.26-3.698 1.872 1.004 2.106 4.287.522 7.333-1.584 3.045-4.387 4.7-6.26 3.697z" transform="translate(-827 -282) translate(240 64) translate(587 218) matrix(-1 0 0 1 193.383 18.45) translate(.478) translate(39.752 51.25)"/>
                                <path fill="#FFF" d="M1.88 23.246c.26-.207.32-.673.095-.737-.254-.073-.33-.46-.168-.865l.083-.21c.16-.405.498-.674.753-.601.224.064.51-.336.451-.635-.065-.338.12-.803.413-1.038l.15-.122c.296-.235.587-.152.652.186.059.299.4.197.543-.16.16-.406.498-.675.753-.602l.13.038c.254.073.33.462.169.865-.143.359.057.616.317.408.295-.235.586-.152.651.186l.035.173c.065.337-.12.803-.413 1.038-.26.207-.32.673-.096.737.254.073.33.461.169.865l-.083.21c-.161.405-.499.674-.753.602-.224-.065-.51.335-.452.634.065.338-.12.803-.413 1.038l-.15.122c-.295.235-.586.152-.651-.186-.06-.299-.401-.197-.543.16-.161.406-.499.675-.753.603l-.13-.04c-.255-.072-.33-.46-.17-.864.143-.359-.056-.615-.317-.408-.295.235-.585.152-.65-.186l-.035-.173c-.067-.337.118-.803.413-1.038zm2.604.483c.73-.583 1.188-1.737 1.025-2.576-.163-.84-.887-1.047-1.617-.464s-1.188 1.737-1.025 2.576c.162.84.886 1.047 1.617.464z" transform="translate(-827 -282) translate(240 64) translate(587 218) matrix(-1 0 0 1 193.383 18.45) translate(.478) translate(39.752 51.25)"/>
                            </g>
                            <g>
                                <path fill="#2536B8" fill-rule="nonzero" d="M29.03 2.397C18.785 7.967 11.08 21.474 11.828 32.56c.015.226.04.452.06.675-.509.197-1.027.438-1.55.723C4.196 37.297-.42 45.385.03 52.03c.432 6.42 5.436 9.139 11.318 6.296l41.239-22.563c6.929-3.733 12.118-12.854 11.612-20.349-.509-7.565-6.522-10.651-13.514-6.851-.714.387-1.407.834-2.08 1.327C46.767.658 38.47-2.737 29.031 2.397z" transform="translate(-827 -282) translate(240 64) translate(587 218) matrix(-1 0 0 1 193.383 18.45) translate(.478) translate(.205)"/>
                                <path fill="#FFF" fill-rule="nonzero" d="M33.13 5.812C22.885 11.383 15.18 24.89 15.928 35.976c.015.226.039.452.06.676-.509.196-1.027.437-1.55.722C8.296 40.714 3.68 48.801 4.13 55.447c.432 6.42 5.436 9.14 11.318 6.297L56.687 39.18c6.932-3.733 12.118-12.854 11.612-20.35-.509-7.564-6.522-10.65-13.514-6.85-.714.387-1.407.833-2.08 1.327C50.87 4.073 42.571.68 33.131 5.812z" transform="translate(-827 -282) translate(240 64) translate(587 218) matrix(-1 0 0 1 193.383 18.45) translate(.478) translate(.205)"/>
                                <path fill="#7989E9" fill-rule="nonzero" d="M35.18 6.495C24.935 12.067 17.23 25.573 17.978 36.66c.015.227.04.453.06.676-.509.197-1.027.437-1.55.722C10.346 41.397 5.73 49.484 6.18 56.13c.432 6.42 5.436 9.14 11.318 6.297l41.239-22.564c6.93-3.732 12.118-12.854 11.612-20.349-.509-7.565-6.522-10.652-13.514-6.851-.714.387-1.407.834-2.08 1.327C52.92 4.757 44.623 1.365 35.182 6.495z" transform="translate(-827 -282) translate(240 64) translate(587 218) matrix(-1 0 0 1 193.383 18.45) translate(.478) translate(.205)"/>
                                <path fill="#D3D9FB" fill-rule="nonzero" d="M37.67 8.519c-9.92 5.506-17.379 18.856-16.656 29.815.015.225.038.448.059.67-.494.195-.994.432-1.5.714-5.945 3.3-10.41 11.297-9.977 17.864.417 6.347 5.263 9.034 10.957 6.226l39.922-22.304c6.71-3.691 11.733-12.707 11.242-20.115-.494-7.477-6.313-10.53-13.082-6.772-.69.385-1.361.827-2.013 1.313C54.843 6.8 46.808 3.445 37.67 8.519z" opacity=".39" transform="translate(-827 -282) translate(240 64) translate(587 218) matrix(-1 0 0 1 193.383 18.45) translate(.478) translate(.205)"/>
                                <path fill="#FFF" d="M49.001 27.371L53.983 24.442 46.151 38.267 38.267 33.691 43.249 30.757 43.232 17.741 48.99 14.35z" transform="translate(-827 -282) translate(240 64) translate(587 218) matrix(-1 0 0 1 193.383 18.45) translate(.478) translate(.205)"/>
                                <path fill="#FFF" d="M32.311 32.762L27.333 35.691 35.169 21.867 43.05 26.448 38.072 29.377 38.083 42.398 32.328 45.783z" transform="translate(-827 -282) translate(240 64) translate(587 218) matrix(-1 0 0 1 193.383 18.45) translate(.478) translate(.205)"/>
                            </g>
                        </g>
                    </g>
                </g>
            </g>
        </g>
    </g>
</svg>
