<svg xmlns="http://www.w3.org/2000/svg" xmlns:xlink="http://www.w3.org/1999/xlink" width="13" height="13" viewBox="0 0 13 13">
    <defs>
        <path id="prefix__a" d="M5.95 4.117V3.025H4.884v1.092H5.95zm0 4.342v-3.25H4.884v3.25H5.95zM5.417.334c.988 0 1.902.247 2.743.74.814.469 1.456 1.11 1.924 1.925.494.84.74 1.755.74 2.743s-.246 1.902-.74 2.743c-.468.814-1.11 1.456-1.924 1.924-.841.494-1.755.74-2.743.74s-1.903-.246-2.743-.74C1.859 9.932 1.218 9.286.75 8.472.256 7.63.009 6.72.009 5.742c0-.98.247-1.89.74-2.73.477-.815 1.123-1.46 1.938-1.937.84-.494 1.75-.741 2.73-.741z"/>
    </defs>
    <g fill="none" fill-rule="evenodd" transform="translate(1.083 .542)">
        <mask id="prefix__b" fill="#fff">
            <use xlink:href="#prefix__a"/>
        </mask>
        <g fill="#7C8087" mask="url(#prefix__b)">
            <path d="M0 0H13V13H0z" transform="translate(-1.083 -.542)"/>
        </g>
    </g>
</svg>
