<svg xmlns="http://www.w3.org/2000/svg" width="80" height="48" viewBox="0 0 80 48">
    <g fill="none">
        <path fill="#EA4335" d="M47.396 14.223h1.665l4.746-4.742.233-2.013C48.513 2.593 40.858.916 33.797 3.032c-7.062 2.116-12.529 7.725-14.46 14.835.53-.217 1.115-.252 1.666-.1l9.491-1.564s.483-.799.733-.749c4.222-4.633 11.327-5.173 16.202-1.231h-.033z"/>
        <path fill="#4285F4" d="M60.496 17.88c-1.092-4.026-3.334-7.645-6.451-10.413l-6.668 6.675c2.815 2.303 4.42 5.773 4.35 9.412v1.185c3.278 0 5.935 2.66 5.935 5.94 0 3.282-2.657 5.942-5.934 5.942H39.859l-1.184 1.201v7.126l1.184 1.185h11.869c6.805.053 12.841-4.362 14.86-10.868 2.02-6.506-.455-13.568-6.092-17.385z"/>
        <path fill="#34A853" d="M28.128 46.133H40V36.54H28.128c-.845 0-1.681-.184-2.45-.539l-1.668.522-4.785 4.797-.417 1.683c2.683 2.046 5.958 3.146 9.32 3.131z"/>
        <path fill="#FBBC05" d="M28.006 15.467c-6.57.039-12.389 4.23-14.485 10.431-2.097 6.202-.008 13.046 5.2 17.035l6.86-6.833c-2.397-1.079-3.79-3.605-3.42-6.199.37-2.593 2.417-4.631 5.02-5 2.605-.37 5.14 1.018 6.224 3.406l6.86-6.834c-2.919-3.801-7.455-6.023-12.259-6.006z"/>
    </g>
</svg>
