<svg xmlns="http://www.w3.org/2000/svg" width="80" height="48" viewBox="0 0 80 48">
    <g fill="none" fill-rule="evenodd">
        <path fill="#252F3E" fill-rule="nonzero" d="M22.623 17.44c0 .987.105 1.787.29 2.373.213.587.478 1.227.849 1.92.132.214.185.427.185.614 0 .266-.159.533-.503.8l-1.67 1.12c-.238.16-.476.24-.688.24-.265 0-.53-.134-.795-.374-.37-.4-.688-.826-.953-1.253-.265-.453-.53-.96-.821-1.573-2.067 2.453-4.663 3.68-7.789 3.68-2.225 0-4-.64-5.298-1.92-1.298-1.28-1.96-2.987-1.96-5.12 0-2.267.795-4.107 2.41-5.494 1.617-1.386 3.762-2.08 6.49-2.08.902 0 1.829.08 2.809.214.98.133 1.987.346 3.046.586V9.227c0-2.027-.424-3.44-1.245-4.267-.848-.827-2.278-1.227-4.318-1.227-.927 0-1.88.107-2.86.347s-1.934.533-2.862.907c-.423.186-.741.293-.927.346-.185.054-.318.08-.424.08-.37 0-.556-.266-.556-.826V3.28c0-.427.053-.747.186-.933.132-.187.37-.374.741-.56.927-.48 2.04-.88 3.338-1.2C10.596.24 11.974.08 13.43.08c3.153 0 5.457.72 6.94 2.16 1.458 1.44 2.2 3.627 2.2 6.56v8.64h.053zm-10.755 4.053c.874 0 1.774-.16 2.728-.48.954-.32 1.801-.906 2.517-1.706.423-.507.741-1.067.9-1.707.16-.64.265-1.413.265-2.32v-1.12c-.768-.187-1.59-.347-2.437-.453-.848-.107-1.669-.16-2.49-.16-1.775 0-3.073.346-3.947 1.066-.874.72-1.298 1.734-1.298 3.067 0 1.253.318 2.187.98 2.827.636.666 1.563.986 2.782.986zm21.271 2.88c-.477 0-.795-.08-1.007-.266-.211-.16-.397-.534-.556-1.04L25.351 2.453c-.159-.533-.238-.88-.238-1.066 0-.427.212-.667.635-.667h2.596c.504 0 .848.08 1.033.267.212.16.371.533.53 1.04l4.45 17.653L38.49 2.027c.133-.534.291-.88.503-1.04.212-.16.583-.267 1.06-.267h2.12c.502 0 .847.08 1.059.267.212.16.397.533.503 1.04l4.186 17.866 4.582-17.866c.16-.534.345-.88.53-1.04.212-.16.556-.267 1.033-.267h2.464c.424 0 .662.213.662.667 0 .133-.026.266-.053.426-.026.16-.08.374-.185.667L50.57 23.093c-.16.534-.345.88-.557 1.04-.212.16-.556.267-1.006.267h-2.279c-.503 0-.847-.08-1.06-.267-.211-.186-.396-.533-.502-1.066l-4.106-17.2-4.08 17.173c-.132.533-.291.88-.503 1.067-.212.186-.583.266-1.06.266H33.14zm34.04.72c-1.378 0-2.755-.16-4.08-.48-1.324-.32-2.357-.666-3.046-1.066-.424-.24-.715-.507-.821-.747-.106-.24-.16-.507-.16-.747v-1.36c0-.56.213-.826.61-.826.16 0 .318.026.477.08.159.053.397.16.662.266.9.4 1.881.72 2.914.934 1.06.213 2.093.32 3.152.32 1.67 0 2.967-.294 3.868-.88.9-.587 1.377-1.44 1.377-2.534 0-.746-.238-1.36-.715-1.866-.477-.507-1.377-.96-2.675-1.387L64.9 13.6c-1.934-.613-3.365-1.52-4.239-2.72-.874-1.173-1.324-2.48-1.324-3.867 0-1.12.238-2.106.715-2.96.477-.853 1.113-1.6 1.907-2.186C62.755 1.253 63.656.8 64.715.48c1.06-.32 2.172-.453 3.338-.453.583 0 1.192.026 1.775.106.61.08 1.165.187 1.722.294.53.133 1.033.266 1.51.426.476.16.847.32 1.112.48.371.214.636.427.795.667.159.213.238.507.238.88v1.253c0 .56-.212.854-.609.854-.212 0-.556-.107-1.007-.32-1.51-.694-3.205-1.04-5.086-1.04-1.51 0-2.702.24-3.523.746-.821.507-1.245 1.28-1.245 2.374 0 .746.265 1.386.795 1.893.53.507 1.51 1.013 2.914 1.467l3.761 1.2c1.908.613 3.285 1.466 4.106 2.56.821 1.093 1.219 2.346 1.219 3.733 0 1.147-.239 2.187-.689 3.093-.477.907-1.113 1.707-1.934 2.347-.82.667-1.801 1.147-2.94 1.493-1.192.374-2.437.56-3.788.56z"/>
        <g fill="#F90">
            <path d="M72.185 8.187c-8.715 6.48-21.377 9.92-32.264 9.92-15.259 0-29.007-5.68-39.391-15.12-.821-.747-.08-1.76.9-1.174 11.232 6.56 25.087 10.534 39.418 10.534 9.669 0 20.291-2.027 30.066-6.187 1.457-.667 2.702.96 1.271 2.027z" transform="translate(0 29.867)"/>
            <path d="M75.815 4.027c-1.113-1.44-7.365-.694-10.2-.347-.847.107-.98-.64-.211-1.2 4.98-3.52 13.166-2.507 14.12-1.333.953 1.2-.266 9.44-4.928 13.386-.715.614-1.404.294-1.086-.506 1.06-2.64 3.417-8.587 2.305-10z" transform="translate(0 29.867)"/>
        </g>
    </g>
</svg>
