<svg xmlns="http://www.w3.org/2000/svg" width="80" height="48" viewBox="0 0 80 48">
    <path fill="#0089D6" d="M13.766 34.494c3.823-.68 6.98-1.242 7.016-1.25l.066-.014-3.609-4.321c-1.985-2.377-3.61-4.33-3.61-4.342 0-.021 3.728-10.352 3.749-10.389.007-.012 2.543 4.395 6.148 10.685l6.183 10.788.047.082-11.47-.001-11.471-.002 6.95-1.236zm43.987-1.045c-1.746-.112-2.761-1.113-3.03-2.986-.072-.499-.072-.512-.08-3.747l-.007-3.13h1.546l.006 3.028c.005 2.73.009 3.05.035 3.241.105.78.314 1.304.67 1.68.286.3.62.477 1.083.57.218.045.839.045 1.038 0 .469-.103.844-.309 1.176-.642.378-.38.657-.92.793-1.53l.045-.205.005-3.054.005-3.055h1.578v9.602h-1.561v-.761c0-.518-.006-.76-.018-.756-.01.003-.05.065-.09.137-.268.494-.717.946-1.208 1.218-.589.326-1.18.442-1.986.39zm17.722-.008c-.616-.046-1.265-.26-1.795-.59-1.118-.696-1.78-1.843-1.974-3.422-.067-.547-.075-1.28-.019-1.745.125-1.038.53-2.056 1.107-2.783.148-.187.483-.524.668-.673.5-.402 1.085-.683 1.706-.82.362-.08 1-.117 1.384-.08.965.09 1.85.547 2.452 1.267.61.732.947 1.755.99 3.014.006.197.008.543.003.769l-.008.41-3.382.004-3.382.004v.152c0 .463.111.99.304 1.438.167.386.454.808.688 1.013.482.418 1.07.669 1.715.73.239.022.848-.002 1.12-.044.777-.12 1.516-.427 2.112-.877.07-.053.138-.103.15-.11.017-.011.021.127.02.709v.723l-.16.1c-.674.42-1.448.69-2.266.79-.244.03-1.14.044-1.433.021zm2.944-6.095c0-.775-.325-1.635-.784-2.078-.327-.317-.723-.51-1.194-.583-.223-.035-.692-.022-.927.026-.496.101-.906.32-1.265.677-.376.375-.659.83-.837 1.349-.063.186-.138.492-.161.663l-.011.08h5.179v-.134zM32.542 33.2l2.552-6.749 2.545-6.727h1.636l.067.175c.208.535 5.095 13.308 5.095 13.315 0 .004-.391.008-.87.008h-.87l-.704-1.888-.704-1.888h-5.673l-.025.064c-.013.035-.314.884-.668 1.887l-.645 1.824h-.871c-.69 0-.87-.004-.865-.02zm8.229-5.195c0-.003-.474-1.297-1.054-2.875-1.083-2.952-1.144-3.13-1.23-3.604-.04-.222-.06-.228-.084-.025-.017.145-.091.469-.148.649-.028.09-.516 1.438-1.085 2.997-.568 1.559-1.033 2.84-1.033 2.849 0 .008 1.043.014 2.317.014 1.274 0 2.317-.002 2.317-.005zm4.192 4.97v-.245l2.826-3.91 2.826-3.91-2.558-.01-2.559-.008-.004-.653-.005-.654h7.401v.442l-2.826 3.931c-1.554 2.163-2.826 3.936-2.826 3.94 0 .004 1.256.008 2.792.008h2.792v1.316h-7.859v-.246zm20.737.235c-.007-.006-.012-2.174-.012-4.818v-4.807h1.545v.991c0 .545.007.991.015.991s.045-.09.083-.198c.174-.5.475-.967.863-1.338.35-.334.749-.534 1.22-.61.132-.022.244-.026.51-.02.332.01.506.034.708.1l.064.022v1.613l-.183-.091c-.322-.163-.64-.227-1.023-.207-.248.013-.412.045-.61.12-.41.155-.742.428-.974.8-.336.54-.575 1.233-.646 1.87-.013.114-.02 1.045-.023 2.881l-.004 2.713h-.761c-.419 0-.766-.005-.772-.012zM0 33.177c0-.007 1.7-2.978 3.78-6.604l3.778-6.593 4.405-3.72c2.422-2.047 4.41-3.723 4.418-3.727.008-.003-.024.078-.07.18l-4.783 10.325L6.831 33.18l-3.415.004c-1.879.003-3.416 0-3.416-.006z"/>
</svg>
