<svg xmlns="http://www.w3.org/2000/svg" width="213" height="158" viewBox="0 0 213 158">
    <g fill="none" fill-rule="evenodd">
        <g>
            <path d="M0 0L158 0 158 158 0 158z" transform="translate(2)"/>
            <path fill="#186AEA" fill-rule="nonzero" d="M138.818 13H20.182C12.932 13 7 18.94 7 26.2v79.2c0 7.26 5.932 13.2 13.182 13.2h46.136v13.2H53.136V145h52.728v-13.2H92.682v-13.2h46.136c7.25 0 13.182-5.94 13.182-13.2V26.2c0-7.26-5.932-13.2-13.182-13.2zm0 92.4H20.182V26.2h118.636v79.2z" transform="translate(2)"/>
        </g>
        <g>
            <path fill="#8AC6FF" fill-rule="nonzero" d="M7.72 7.335L4 11.029 14.283 21.24v39.942c0 3.2 2.637 5.818 5.86 5.818h29.296c2.989 0 5.42-2.24 5.801-5.09l5.04 5.003L64 63.218 7.72 7.335zm12.423 48.029V27.058l28.505 28.306H20.143zm29.296-40.728v26.677l5.86 5.818V8.818c0-3.2-2.637-5.818-5.86-5.818H20.143c-2.49 0-4.63 1.57-5.479 3.782l7.91 7.854H49.44z" transform="translate(143 79)"/>
            <path d="M0 0L70 0 70 70 0 70z" transform="translate(143 79)"/>
        </g>
    </g>
</svg>
