<svg xmlns="http://www.w3.org/2000/svg" xmlns:xlink="http://www.w3.org/1999/xlink" width="110" height="52" viewBox="0 0 110 52">
    <defs>
        <path id="prefix__a" d="M0.014 0L102.614 0 102.614 46.17 0.014 46.17z"/>
    </defs>
    <g fill="none" fill-rule="evenodd">
        <mask id="prefix__b" fill="#fff">
            <use xlink:href="#prefix__a"/>
        </mask>
        <g fill="#FFF" fill-rule="nonzero" mask="url(#prefix__b)">
            <path d="M15.153 0c.469 0 .938.12 1.359.359l4.146 2.387-2.753 1.585-1.376-.793-.69-.397c-.424-.245-.948-.245-1.373 0l-.687.396L6.895 7.5l-.688.396c-.306.177-.306.617 0 .793l.688.396 9.63 5.545 1.38.795v13.471c0 .352.383.573.688.396l.688-.396 6.882-3.962.688-.396c.425-.245.688-.698.688-1.189v-2.377l2.752-1.585v4.755c0 .978-.521 1.881-1.368 2.373l-12.398 7.138c-.425.245-.899.367-1.372.367V17.01l-1.376-.793L.383 8.505c.235-.406.574-.751.993-.996L13.796.357l.074-.04C14.271.105 14.712 0 15.153 0zM.014 9.878l2.753 1.585v11.886c0 .47.24.904.633 1.156l.055.033.688.396 9.633 5.547v3.17L1.39 26.519l-.004-.002C.54 26.029.016 25.128.014 24.153V9.878zm77.396 2.434c1.135 0 2.195.208 3.18.624.984.417 1.84.988 2.568 1.714s1.301 1.57 1.719 2.53c.417.961.626 1.997.626 3.107s-.209 2.152-.626 3.123c-.418.972-.99 1.815-1.719 2.53-.728.716-1.584 1.282-2.569 1.698-.984.417-2.044.625-3.179.625-1.135 0-2.194-.208-3.18-.625-.984-.416-1.84-.982-2.569-1.697-.728-.716-1.3-1.56-1.718-2.53-.417-.972-.626-2.013-.626-3.124 0-1.11.209-2.146.626-3.107.417-.96.99-1.804 1.718-2.53.728-.726 1.585-1.297 2.57-1.714.985-.416 2.044-.624 3.18-.624zm-26.388-7.11c.985 0 1.9.117 2.746.351.846.235 1.574.582 2.184 1.041.61.46 1.092 1.047 1.445 1.762.353.715.53 1.554.53 2.514 0 1.303-.364 2.365-1.092 3.187-.728.823-1.67 1.426-2.826 1.81v.064c.685.043 1.327.219 1.927.529.6.31 1.119.715 1.557 1.217.44.502.787 1.084 1.044 1.745.257.662.386 1.378.386 2.146 0 1.025-.21 1.928-.627 2.707-.417.78-.99 1.436-1.718 1.97s-1.574.94-2.537 1.217c-.963.278-2.002.416-3.115.416h-6.73c-.593 0-1.074-.48-1.074-1.071V6.273c0-.592.48-1.072 1.074-1.072h6.826zm14.44-1.538c.15 0 .27.12.27.268V27.61c0 .147-.12.267-.27.267H63.11c-.148 0-.268-.12-.268-.267V3.93c0-.147.12-.267.268-.267h2.354zm25.496 9.032c.09 0 .172.044.222.117l3.39 4.938c.083.123.25.154.373.07.028-.019.052-.043.071-.071l3.329-4.935c.05-.074.133-.119.223-.119h2.827c.149 0 .269.12.269.268 0 .057-.018.112-.052.158l-4.653 6.33c-.14.192-.138.452.005.641l5.597 7.356c.09.117.067.286-.051.375-.047.035-.104.054-.162.054H99.3c-.088 0-.17-.042-.22-.113l-4.197-5.95c-.085-.12-.252-.15-.374-.064-.025.018-.047.04-.065.065l-4.196 5.949c-.05.071-.132.113-.22.113h-2.884c-.148 0-.269-.12-.269-.267 0-.059.02-.116.055-.162l5.593-7.35c.145-.192.145-.457 0-.648l-4.822-6.325c-.09-.118-.066-.286.052-.375.046-.036.103-.055.162-.055h3.042zM77.41 15.002c-.771 0-1.467.134-2.088.4-.62.268-1.145.63-1.573 1.09-.428.459-.76 1.014-.996 1.665-.235.652-.353 1.362-.353 2.13 0 .769.118 1.479.353 2.13.236.652.568 1.207.996 1.666.428.459.952.822 1.573 1.089s1.317.4 2.088.4c.77 0 1.467-.133 2.087-.4.621-.267 1.146-.63 1.574-1.09.428-.458.76-1.013.995-1.665.236-.651.354-1.361.354-2.13 0-.768-.118-1.478-.354-2.13-.235-.651-.567-1.206-.995-1.665-.428-.46-.953-.822-1.574-1.09-.62-.266-1.316-.4-2.087-.4zM50.765 17.31h-4.023c-.297 0-.537.24-.537.535v6.808c0 .296.24.536.537.536h3.991c.471 0 .99-.048 1.558-.144.567-.096 1.097-.289 1.59-.577.492-.288.91-.678 1.252-1.169.342-.491.514-1.142.514-1.954 0-1.345-.439-2.354-1.317-3.027-.878-.672-2.066-1.008-3.565-1.008zM22.034 3.539l6.888 3.965.067.04c.806.499 1.3 1.378 1.302 2.327v7.931l-2.752 1.585v-7.924c0-.952-.494-1.834-1.302-2.333l-.074-.045-6.882-3.962 2.753-1.585zm29.02 4.353h-4.312c-.297 0-.537.24-.537.535v5.655c0 .296.24.536.537.536h3.67c.578 0 1.124-.059 1.638-.176.514-.118.963-.315 1.349-.593.385-.277.69-.63.915-1.057.225-.427.337-.95.337-1.57 0-.896-.289-1.675-.867-2.337-.578-.662-1.488-.993-2.73-.993zM43.715 43.731c.231.34.525.593.88.758.366.157.74.235 1.122.235.214 0 .432-.03.654-.091.223-.07.423-.17.601-.3.187-.131.338-.292.454-.484.116-.192.173-.414.173-.666 0-.357-.115-.627-.347-.81-.231-.192-.52-.349-.867-.47-.339-.131-.712-.253-1.122-.367-.4-.122-.774-.287-1.121-.496-.338-.209-.623-.488-.855-.836-.231-.357-.347-.836-.347-1.437 0-.27.058-.558.174-.863.124-.304.316-.583.574-.836.258-.252.587-.461.988-.627.41-.174.899-.261 1.468-.261.517 0 1.01.07 1.482.209.472.14.886.422 1.242.85l-1.042.927c-.16-.244-.387-.44-.68-.588-.294-.148-.628-.222-1.002-.222-.356 0-.654.048-.894.143-.231.088-.418.205-.56.353-.143.14-.246.292-.308.457-.053.166-.08.318-.08.458 0 .392.116.692.347.901.232.21.516.38.855.51.347.13.72.248 1.12.353.41.104.784.252 1.122.444.347.183.637.435.868.757.231.314.347.75.347 1.307 0 .444-.089.845-.267 1.202-.169.357-.4.657-.694.901-.294.244-.64.431-1.041.562-.4.13-.828.196-1.282.196-.605 0-1.18-.104-1.722-.314-.543-.209-.975-.53-1.295-.966l1.055-.889zM52.828 37.591L49.784 37.591 49.784 36.415 57.154 36.415 57.154 37.591 54.11 37.591 54.11 45.665 52.828 45.665zM60.256 36.415h1.162l4.045 9.25h-1.495l-.948-2.286h-4.5l-.933 2.286H56.09l4.165-9.25zm2.297 5.866l-1.763-4.246h-.027l-1.788 4.246h3.578zM66.693 36.415L67.974 36.415 67.974 40.413 68.081 40.413 72.26 36.415 74.049 36.415 69.483 40.687 74.355 45.665 72.486 45.665 68.081 41.04 67.974 41.04 67.974 45.665 66.693 45.665zM75.349 36.415L76.631 36.415 76.631 45.665 75.349 45.665zM79.065 36.415L80.747 36.415 85.953 44.019 85.98 44.019 85.98 36.415 87.262 36.415 87.262 45.665 85.633 45.665 80.373 38.061 80.346 38.061 80.346 45.665 79.065 45.665zM97.74 40.491v4.56c-.232.14-.494.261-.788.366-.293.104-.6.191-.92.26-.312.08-.633.136-.962.17-.32.036-.623.053-.908.053-.8 0-1.517-.13-2.15-.392-.622-.261-1.152-.614-1.588-1.058-.427-.444-.756-.958-.988-1.542-.222-.592-.333-1.215-.333-1.868 0-.688.12-1.328.36-1.92.25-.593.587-1.107 1.015-1.542.436-.436.956-.775 1.562-1.02.605-.252 1.268-.378 1.989-.378.872 0 1.584.109 2.136.327.552.209 1.014.5 1.388.875l-.908.954c-.391-.366-.805-.619-1.241-.758-.436-.148-.895-.222-1.375-.222-.543 0-1.033.1-1.469.3-.436.192-.81.453-1.121.784-.312.331-.552.723-.721 1.176-.17.444-.254.919-.254 1.424 0 .523.093 1.01.28 1.463.188.444.446.832.775 1.163.33.33.716.592 1.161.784.445.183.93.274 1.455.274.455 0 .882-.039 1.282-.117.41-.088.756-.21 1.042-.366v-2.574h-2.097v-1.176h3.378z"/>
        </g>
    </g>
</svg>
