<svg xmlns="http://www.w3.org/2000/svg" xmlns:xlink="http://www.w3.org/1999/xlink" width="300" height="170" viewBox="0 0 300 170">
    <defs>
        <filter id="6kw2wxaeha" width="160.4%" height="160.4%" x="-30.2%" y="-26%" filterUnits="objectBoundingBox">
            <feMorphology in="SourceAlpha" operator="dilate" radius="1" result="shadowSpreadOuter1"/>
            <feOffset dy="2" in="shadowSpreadOuter1" result="shadowOffsetOuter1"/>
            <feGaussianBlur in="shadowOffsetOuter1" result="shadowBlurOuter1" stdDeviation="3.5"/>
            <feColorMatrix in="shadowBlurOuter1" values="0 0 0 0 0.933333333 0 0 0 0 0.949019608 0 0 0 0 0.980392157 0 0 0 1 0"/>
        </filter>
        <filter id="zly903o9be" width="143.3%" height="143.3%" x="-21.6%" y="-18.7%" filterUnits="objectBoundingBox">
            <feMorphology in="SourceAlpha" operator="dilate" radius="1" result="shadowSpreadOuter1"/>
            <feOffset dy="2" in="shadowSpreadOuter1" result="shadowOffsetOuter1"/>
            <feGaussianBlur in="shadowOffsetOuter1" result="shadowBlurOuter1" stdDeviation="3.5"/>
            <feColorMatrix in="shadowBlurOuter1" values="0 0 0 0 0.933333333 0 0 0 0 0.949019608 0 0 0 0 0.980392157 0 0 0 1 0"/>
        </filter>
        <rect id="tg6h9z3ttb" width="48" height="48" x="0" y="0" rx="11"/>
        <rect id="ih9baawvlf" width="67" height="67" x="0" y="26" rx="11"/>
        <path id="gze5soo46c" d="M12 22.4L3.6 14 0.8 16.8 12 28 36 4 33.2 1.2z"/>
        <path id="ii10cm6ehg" d="M23.25 43.4L6.975 27.125 1.55 32.55 23.25 54.25 69.75 7.75 64.325 2.325z"/>
    </defs>
    <g fill="none" fill-rule="evenodd">
        <rect width="150" height="150" x="75" y="8" fill="#F2F7FF" rx="75"/>
        <g transform="translate(102 77)">
            <use fill="#000" filter="url(#6kw2wxaeha)" xlink:href="#tg6h9z3ttb"/>
            <use fill="#FFF" xlink:href="#tg6h9z3ttb"/>
            <g transform="translate(6 10)">
                <mask id="7hmo8xmdbd" fill="#fff">
                    <use xlink:href="#gze5soo46c"/>
                </mask>
                <g fill="#B9DBFF" mask="url(#7hmo8xmdbd)">
                    <path d="M0 0H48V48H0z" transform="translate(-6 -10)"/>
                </g>
            </g>
        </g>
        <g transform="translate(132 8)">
            <use fill="#000" filter="url(#zly903o9be)" xlink:href="#ih9baawvlf"/>
            <use fill="#FFF" xlink:href="#ih9baawvlf"/>
            <g transform="translate(11.625 19.375)">
                <mask id="lqm032zdbh" fill="#fff">
                    <use xlink:href="#ii10cm6ehg"/>
                </mask>
                <g fill="#B9DBFF" mask="url(#lqm032zdbh)">
                    <path d="M0 0H93V93H0z" transform="translate(-11.625 -19.375)"/>
                </g>
            </g>
        </g>
    </g>
</svg>
