<svg xmlns="http://www.w3.org/2000/svg" xmlns:xlink="http://www.w3.org/1999/xlink" width="300" height="170" viewBox="0 0 300 170">
    <defs>
        <filter id="kkvtzaicta" width="116.7%" height="180.6%" x="-8.3%" y="-34.7%" filterUnits="objectBoundingBox">
            <feMorphology in="SourceAlpha" operator="dilate" radius="1" result="shadowSpreadOuter1"/>
            <feOffset dy="2" in="shadowSpreadOuter1" result="shadowOffsetOuter1"/>
            <feGaussianBlur in="shadowOffsetOuter1" result="shadowBlurOuter1" stdDeviation="3.5"/>
            <feColorMatrix in="shadowBlurOuter1" values="0 0 0 0 0.933333333 0 0 0 0 0.949019608 0 0 0 0 0.980392157 0 0 0 1 0"/>
        </filter>
        <rect id="1050ixgk1b" width="174" height="36" x="107" y="56" rx="18"/>
        <path id="9wo4px4s2c" d="M12.502 11.458l4.988 5.209-1.491 1.553-4.998-5.2v-.824l-.276-.286c-1.137 1.015-2.61 1.632-4.225 1.632-3.59 0-6.5-3.032-6.5-6.771C0 3.03 2.91 0 6.5 0S13 3.031 13 6.77c0 1.683-.593 3.219-1.568 4.403l.276.285h.794zm-6.002 0c2.485 0 4.5-2.098 4.5-4.687 0-2.589-2.015-4.688-4.5-4.688-2.486 0-4.5 2.1-4.5 4.688 0 2.59 2.014 4.687 4.5 4.687z"/>
    </defs>
    <g fill="none" fill-rule="evenodd">
        <rect width="215" height="114" x="42" y="28" fill="#F2F7FF" rx="4"/>
        <circle cx="67.5" cy="36.5" r="2.5" fill="#E2F1FF"/>
        <circle cx="58.5" cy="36.5" r="2.5" fill="#E2F1FF"/>
        <circle cx="50.5" cy="36.5" r="2.5" fill="#E2F1FF"/>
        <use fill="#000" filter="url(#kkvtzaicta)" xlink:href="#1050ixgk1b"/>
        <use fill="#FFF" xlink:href="#1050ixgk1b"/>
        <g>
            <g transform="translate(246 61) translate(3 3.125)">
                <mask id="wmltac43ad" fill="#fff">
                    <use xlink:href="#9wo4px4s2c"/>
                </mask>
                <g fill="#B9DBFF" mask="url(#wmltac43ad)" opacity=".99">
                    <path d="M0 0H24V25H0z" transform="translate(-3 -3.125)"/>
                </g>
            </g>
        </g>
    </g>
</svg>
