<svg xmlns="http://www.w3.org/2000/svg" xmlns:xlink="http://www.w3.org/1999/xlink" width="300" height="170" viewBox="0 0 300 170">
    <defs>
        <filter id="3qcooarrma" width="143.3%" height="143.3%" x="-21.6%" y="-18.7%" filterUnits="objectBoundingBox">
            <feMorphology in="SourceAlpha" operator="dilate" radius="1" result="shadowSpreadOuter1"/>
            <feOffset dy="2" in="shadowSpreadOuter1" result="shadowOffsetOuter1"/>
            <feGaussianBlur in="shadowOffsetOuter1" result="shadowBlurOuter1" stdDeviation="3.5"/>
            <feColorMatrix in="shadowBlurOuter1" values="0 0 0 0 0.933333333 0 0 0 0 0.949019608 0 0 0 0 0.980392157 0 0 0 1 0"/>
        </filter>
        <filter id="7xb7gn12fe" width="158%" height="158%" x="-29%" y="-25%" filterUnits="objectBoundingBox">
            <feMorphology in="SourceAlpha" operator="dilate" radius="1" result="shadowSpreadOuter1"/>
            <feOffset dy="2" in="shadowSpreadOuter1" result="shadowOffsetOuter1"/>
            <feGaussianBlur in="shadowOffsetOuter1" result="shadowBlurOuter1" stdDeviation="3.5"/>
            <feColorMatrix in="shadowBlurOuter1" values="0 0 0 0 0.933333333 0 0 0 0 0.949019608 0 0 0 0 0.980392157 0 0 0 1 0"/>
        </filter>
        <rect id="b12516lphb" width="67" height="67" x="116" y="49" rx="33.5"/>
        <rect id="8ltzauvnvf" width="50" height="50" x="161" y="28" rx="11"/>
        <path id="4urhqzeslc" d="M18.75 22.117c2.067 0 4.333.3 6.8.9 2.8.7 5.067 1.633 6.8 2.8 2.067 1.366 3.1 2.9 3.1 4.6v4.2H2.05v-4.2c0-1.7 1.033-3.234 3.1-4.6 1.733-1.167 4-2.1 6.8-2.8 2.467-.6 4.733-.9 6.8-.9zm0-4.2c-1.5 0-2.883-.375-4.15-1.125-1.267-.75-2.275-1.759-3.025-3.025-.75-1.267-1.125-2.65-1.125-4.15 0-1.5.375-2.9 1.125-4.2.75-1.3 1.758-2.325 3.025-3.075s2.65-1.125 4.15-1.125c1.5 0 2.883.375 4.15 1.125 1.267.75 2.275 1.775 3.025 3.075.75 1.3 1.125 2.7 1.125 4.2s-.375 2.883-1.125 4.15c-.75 1.266-1.758 2.275-3.025 3.025s-2.65 1.125-4.15 1.125z"/>
        <path id="j50mo0chmg" d="M12.5 22.333L3.75 13.583 0.833 16.5 12.5 28.167 37.5 3.167 34.583 0.25z"/>
    </defs>
    <g fill="none" fill-rule="evenodd">
        <rect width="150" height="150" x="75" y="8" fill="#F2F7FF" rx="75"/>
        <use fill="#000" filter="url(#3qcooarrma)" xlink:href="#b12516lphb"/>
        <use fill="#FFF" xlink:href="#b12516lphb"/>
        <g transform="translate(131.25 65.25)">
            <mask id="16wxeoyvwd" fill="#fff">
                <use xlink:href="#4urhqzeslc"/>
            </mask>
            <g fill="#B9DBFF" mask="url(#16wxeoyvwd)">
                <path d="M0 0H50V50H0z" transform="translate(-6.25 -6.25)"/>
            </g>
        </g>
        <use fill="#000" filter="url(#7xb7gn12fe)" xlink:href="#8ltzauvnvf"/>
        <use fill="#B9DBFF" xlink:href="#8ltzauvnvf"/>
        <g>
            <g transform="translate(161 28) translate(6.25 11.417)">
                <mask id="mwzxcaookh" fill="#fff">
                    <use xlink:href="#j50mo0chmg"/>
                </mask>
                <g fill="#FFF" mask="url(#mwzxcaookh)">
                    <path d="M0 0H50V50H0z" transform="translate(-6.25 -11.417)"/>
                </g>
            </g>
        </g>
    </g>
</svg>
