<svg xmlns="http://www.w3.org/2000/svg" xmlns:xlink="http://www.w3.org/1999/xlink" width="300" height="170" viewBox="0 0 300 170">
    <defs>
        <filter id="ye45f1prpa" width="143.3%" height="143.3%" x="-21.6%" y="-18.7%" filterUnits="objectBoundingBox">
            <feMorphology in="SourceAlpha" operator="dilate" radius="1" result="shadowSpreadOuter1"/>
            <feOffset dy="2" in="shadowSpreadOuter1" result="shadowOffsetOuter1"/>
            <feGaussianBlur in="shadowOffsetOuter1" result="shadowBlurOuter1" stdDeviation="3.5"/>
            <feColorMatrix in="shadowBlurOuter1" values="0 0 0 0 0.933333333 0 0 0 0 0.949019608 0 0 0 0 0.980392157 0 0 0 1 0"/>
        </filter>
        <filter id="jw19z7rqrc" width="153.7%" height="153.7%" x="-26.9%" y="-23.1%" filterUnits="objectBoundingBox">
            <feMorphology in="SourceAlpha" operator="dilate" radius="1" result="shadowSpreadOuter1"/>
            <feOffset dy="2" in="shadowSpreadOuter1" result="shadowOffsetOuter1"/>
            <feGaussianBlur in="shadowOffsetOuter1" result="shadowBlurOuter1" stdDeviation="3.5"/>
            <feColorMatrix in="shadowBlurOuter1" values="0 0 0 0 0.933333333 0 0 0 0 0.949019608 0 0 0 0 0.980392157 0 0 0 1 0"/>
        </filter>
        <rect id="v2xqdtn80b" width="67" height="67" x="116" y="52" rx="33.5"/>
        <rect id="szlk6jo2ld" width="54" height="54" x="2" y="2" rx="27"/>
        <path id="d656ozgxie" d="M26.583 12.083L26.583 26.583 12.083 26.583 12.083 31.417 26.583 31.417 26.583 45.917 31.417 45.917 31.417 31.417 45.917 31.417 45.917 26.583 31.417 26.583 31.417 12.083z"/>
        <path id="ci57iwkp0g" d="M18.75 22.117c2.067 0 4.333.3 6.8.9 2.8.7 5.067 1.633 6.8 2.8 2.067 1.366 3.1 2.9 3.1 4.6v4.2H2.05v-4.2c0-1.7 1.033-3.234 3.1-4.6 1.733-1.167 4-2.1 6.8-2.8 2.467-.6 4.733-.9 6.8-.9zm0-4.2c-1.5 0-2.883-.375-4.15-1.125-1.267-.75-2.275-1.759-3.025-3.025-.75-1.267-1.125-2.65-1.125-4.15 0-1.5.375-2.9 1.125-4.2.75-1.3 1.758-2.325 3.025-3.075s2.65-1.125 4.15-1.125c1.5 0 2.883.375 4.15 1.125 1.267.75 2.275 1.775 3.025 3.075.75 1.3 1.125 2.7 1.125 4.2s-.375 2.883-1.125 4.15c-.75 1.266-1.758 2.275-3.025 3.025s-2.65 1.125-4.15 1.125z"/>
    </defs>
    <g fill="none" fill-rule="evenodd">
        <rect width="150" height="150" x="75" y="10" fill="#F2F7FF" rx="75"/>
        <use fill="#000" filter="url(#ye45f1prpa)" xlink:href="#v2xqdtn80b"/>
        <use fill="#FFF" xlink:href="#v2xqdtn80b"/>
        <g transform="translate(56 19)">
            <use fill="#000" filter="url(#jw19z7rqrc)" xlink:href="#szlk6jo2ld"/>
            <use fill="#B9DBFF" xlink:href="#szlk6jo2ld"/>
            <g>
                <mask id="npoqpdvx0f" fill="#fff">
                    <use xlink:href="#d656ozgxie"/>
                </mask>
                <g fill="#F7FCFF" mask="url(#npoqpdvx0f)">
                    <path d="M0 0H58V58H0z"/>
                </g>
            </g>
        </g>
        <g>
            <g transform="translate(125 62) translate(6.25 6.25)">
                <mask id="siovzmjrnh" fill="#fff">
                    <use xlink:href="#ci57iwkp0g"/>
                </mask>
                <g fill="#B9DBFF" mask="url(#siovzmjrnh)">
                    <path d="M0 0H50V50H0z" transform="translate(-6.25 -6.25)"/>
                </g>
            </g>
        </g>
    </g>
</svg>
