<svg xmlns="http://www.w3.org/2000/svg" width="40" height="40" viewBox="0 0 40 40">
    <g fill="none" fill-rule="evenodd">
        <circle cx="20" cy="20" r="20" fill="#E5EAF1"/>
        <path fill="#7C8087" d="M24.111 25.139h2.056v-2.056H24.11v2.056zm0-4.111h2.056v-2.056H24.11v2.056zm4.111 6.166H20V25.14h2.056v-2.056H20v-2.055h2.056v-2.056H20v-2.055h8.222v10.277zM15.89 14.861h2.055v-2.055H15.89v2.055zm0 4.111h2.055v-2.055H15.89v2.055zm0 4.112h2.055v-2.056H15.89v2.056zm0 4.11h2.055V25.14H15.89v2.055zm-4.111-12.333h2.055v-2.055h-2.055v2.055zm0 4.111h2.055v-2.055h-2.055v2.055zm0 4.112h2.055v-2.056h-2.055v2.056zm0 4.11h2.055V25.14h-2.055v2.055zM20 14.861V10.75H9.722v18.5h20.556V14.861H20z"/>
    </g>
</svg>
