<svg xmlns="http://www.w3.org/2000/svg" width="36" height="36" viewBox="0 0 36 36">
    <g fill="none" fill-rule="evenodd">
        <path d="M0 0H36V36H0z"/>
        <g>
            <path fill="#343434" d="M9.034 0L8.84 0.665 8.84 19.993 9.034 20.187 18.074 14.888z" transform="translate(9 3)"/>
            <path fill="#8C8C8C" d="M9.034 0L0 14.888 9.034 20.187z" transform="translate(9 3)"/>
            <path fill="#3C3C3B" d="M9.034 21.888L8.925 22.02 8.925 28.908 9.034 29.229 18.078 16.59z" transform="translate(9 3)"/>
            <path fill="#8C8C8C" d="M9.034 29.229L9.034 21.888 0 16.59z" transform="translate(9 3)"/>
            <path fill="#141414" d="M9.034 20.187L18.074 14.888 9.034 10.81z" transform="translate(9 3)"/>
            <path fill="#393939" d="M0 14.888L9.034 20.187 9.034 10.81z" transform="translate(9 3)"/>
        </g>
    </g>
</svg>
