<svg xmlns="http://www.w3.org/2000/svg" width="171" height="32" viewBox="0 0 171 32">
    <g fill="none">
        <path fill="#161616" d="M150.256 15.64c-.884-.583-1.858-.998-2.78-1.516-.598-.337-1.235-.635-1.754-1.063-.884-.725-.702-2.15.221-2.772 1.325-.882 3.52-.39 3.754 1.412 0 .039.039.065.078.065h2.001c.052 0 .091-.04.078-.091-.104-1.244-.585-2.28-1.468-2.941-.845-.635-1.806-.972-2.833-.972-5.287 0-5.768 5.585-2.923 7.347.325.207 3.118 1.606 4.106 2.216.987.608 1.299 1.723.87 2.604-.39.803-1.403 1.36-2.416 1.296-1.105-.065-1.962-.661-2.261-1.594-.052-.168-.078-.492-.078-.635 0-.039-.039-.078-.078-.078h-2.169c-.039 0-.078.04-.078.078 0 1.568.39 2.436 1.455 3.227 1 .751 2.091 1.062 3.222 1.062 2.962 0 4.495-1.672 4.806-3.408.273-1.697-.233-3.226-1.753-4.237zM56.057 8.047h-2.014c-.039 0-.065.026-.078.052l-1.78 5.857c-.025.077-.13.077-.155 0l-1.78-5.857c-.013-.04-.04-.052-.078-.052h-3.313c-.039 0-.078.039-.078.078v14.953c0 .039.04.078.078.078h2.17c.039 0 .078-.04.078-.078V11.714c0-.09.13-.104.156-.026l1.792 5.896.13.414c.013.04.04.052.078.052h1.663c.039 0 .065-.026.078-.052l.13-.414 1.793-5.896c.026-.09.156-.065.156.026v11.364c0 .039.039.078.078.078h2.17c.038 0 .077-.04.077-.078V8.125c0-.04-.039-.078-.078-.078h-1.273zM117.037 8.047c-.039 0-.065.026-.078.052l-1.779 5.857c-.026.077-.13.077-.156 0l-1.78-5.857c-.013-.04-.039-.052-.078-.052h-3.3c-.039 0-.078.039-.078.078v14.953c0 .039.039.078.078.078h2.17c.039 0 .078-.04.078-.078V11.714c0-.09.13-.104.156-.026l1.792 5.896.13.414c.013.04.039.052.078.052h1.663c.039 0 .065-.026.078-.052l.13-.414 1.793-5.896c.026-.09.156-.065.156.026v11.364c0 .039.039.078.078.078h2.169c.039 0 .078-.04.078-.078V8.125c0-.04-.039-.078-.078-.078h-3.3zM89.054 8.047h-10.25c-.039 0-.078.039-.078.078V9.99c0 .038.04.077.078.077h3.963v13.01c0 .039.038.078.078.078h2.169c.039 0 .078-.04.078-.078v-13.01h3.962c.04 0 .078-.039.078-.077V8.125c0-.04-.026-.078-.078-.078zM101.851 23.155h1.974c.052 0 .091-.051.078-.103L99.824 8.047c-.013-.04-.039-.052-.078-.052h-2.832c-.039 0-.065.026-.078.052l-4.08 15.005c-.012.052.027.103.079.103h1.975c.038 0 .064-.026.078-.051l1.182-4.367c.013-.039.039-.052.078-.052h4.365c.039 0 .065.026.078.052l1.182 4.367c.013.026.052.051.078.051zm-5.184-6.608l1.585-5.844c.026-.078.13-.078.156 0l1.585 5.844c.013.052-.026.104-.078.104h-3.17c-.052 0-.09-.052-.078-.104zM135.524 23.155h1.974c.052 0 .091-.051.078-.103l-4.079-15.005c-.013-.04-.039-.052-.078-.052h-2.832c-.039 0-.065.026-.078.052l-4.079 15.005c-.013.052.026.103.078.103h1.975c.039 0 .065-.026.078-.051l1.182-4.367c.013-.039.039-.052.078-.052h4.365c.039 0 .065.026.078.052l1.182 4.367c.013.026.039.051.078.051zm-5.184-6.608l1.585-5.844c.026-.078.13-.078.156 0l1.585 5.844c.013.052-.026.104-.078.104h-3.17c-.052 0-.091-.052-.078-.104zM66.216 20.94V16.3c0-.038.039-.077.078-.077h5.781c.039 0 .078-.039.078-.078V14.28c0-.04-.039-.078-.078-.078h-5.781c-.039 0-.078-.04-.078-.078v-3.965c0-.039.039-.078.078-.078h6.574c.038 0 .078-.039.078-.077V8.138c0-.04-.04-.078-.078-.078H63.969c-.04 0-.078.039-.078.078v14.94c0 .039.039.078.078.078h9.171c.04 0 .078-.04.078-.078v-1.97c0-.039-.039-.078-.078-.078h-6.859c-.039-.012-.065-.038-.065-.09zM170.08 23.026l-7.509-7.736c-.026-.026-.026-.077 0-.103l6.756-6.998c.052-.051.013-.13-.052-.13h-2.767c-.026 0-.039.014-.052.027l-5.729 5.934c-.052.052-.13.013-.13-.051V8.137c0-.04-.039-.078-.078-.078h-2.17c-.039 0-.078.039-.078.078V23.09c0 .039.039.078.078.078h2.17c.039 0 .078-.04.078-.078v-6.583c0-.064.091-.103.13-.052l6.495 6.687c.013.013.039.026.052.026h2.767c.052-.013.091-.104.039-.143z"/>
        <path fill="#E17726" stroke="#E17726" stroke-linecap="round" stroke-linejoin="round" stroke-width=".25" d="M31.958 0L18.824 9.718 21.267 3.991z"/>
        <path fill="#E27625" stroke="#E27625" stroke-linecap="round" stroke-linejoin="round" stroke-width=".25" d="M1.663 0L14.68 9.809 12.355 3.991zM27.229 22.533L23.735 27.872 31.218 29.932 33.361 22.65zM.273 22.65L2.403 29.932 9.873 27.872 6.392 22.533z"/>
        <path fill="#E27625" stroke="#E27625" stroke-linecap="round" stroke-linejoin="round" stroke-width=".25" d="M9.47 13.515L7.392 16.651 14.797 16.988 14.55 9.019zM24.15 13.515L18.993 8.928 18.824 16.988 26.229 16.651zM9.873 27.872L14.355 25.708 10.497 22.702zM19.266 25.708L23.735 27.872 23.124 22.702z"/>
        <path fill="#D5BFB2" stroke="#D5BFB2" stroke-linecap="round" stroke-linejoin="round" stroke-width=".25" d="M23.735 27.872L19.266 25.708 19.63 28.611 19.591 29.842zM9.873 27.872L14.03 29.842 14.005 28.611 14.355 25.708z"/>
        <path fill="#233447" stroke="#233447" stroke-linecap="round" stroke-linejoin="round" stroke-width=".25" d="M14.108 20.784L10.393 19.696 13.017 18.491zM19.513 20.784L20.604 18.491 23.241 19.696z"/>
        <path fill="#CC6228" stroke="#CC6228" stroke-linecap="round" stroke-linejoin="round" stroke-width=".25" d="M9.873 27.872L10.523 22.533 6.392 22.65zM23.098 22.533L23.735 27.872 27.229 22.65zM26.229 16.651L18.824 16.988 19.512 20.784 20.604 18.491 23.241 19.696zM10.393 19.696L13.017 18.491 14.108 20.784 14.797 16.988 7.392 16.651z"/>
        <path fill="#E27525" stroke="#E27525" stroke-linecap="round" stroke-linejoin="round" stroke-width=".25" d="M7.392 16.651L10.497 22.702 10.393 19.696zM23.241 19.696L23.124 22.702 26.229 16.651zM14.797 16.988L14.109 20.784 14.979 25.267 15.174 19.359zM18.824 16.988L18.46 19.346 18.642 25.267 19.513 20.784z"/>
        <path fill="#F5841F" stroke="#F5841F" stroke-linecap="round" stroke-linejoin="round" stroke-width=".25" d="M19.513 20.784L18.642 25.268 19.266 25.708 23.124 22.702 23.241 19.696zM10.393 19.696L10.497 22.702 14.355 25.708 14.979 25.268 14.108 20.784z"/>
        <path fill="#C0AC9D" stroke="#C0AC9D" stroke-linecap="round" stroke-linejoin="round" stroke-width=".25" d="M19.591 29.842L19.63 28.611 19.292 28.326 14.329 28.326 14.005 28.611 14.03 29.842 9.873 27.872 11.328 29.064 14.277 31.099 19.331 31.099 22.293 29.064 23.735 27.872z"/>
        <path fill="#161616" stroke="#161616" stroke-linecap="round" stroke-linejoin="round" stroke-width=".25" d="M19.266 25.708L18.642 25.268 14.979 25.268 14.355 25.708 14.004 28.611 14.329 28.326 19.292 28.326 19.63 28.611z"/>
        <path fill="#763E1A" stroke="#763E1A" stroke-linecap="round" stroke-linejoin="round" stroke-width=".25" d="M32.517 10.353L33.621 4.989 31.958 0 19.266 9.394 24.151 13.515 31.049 15.523 32.569 13.748 31.906 13.269 32.959 12.31 32.153 11.688 33.205 10.884zM0 4.989L1.117 10.353.403 10.884 1.468 11.688.663 12.31 1.715 13.269 1.052 13.748 2.572 15.523 9.471 13.515 14.355 9.394 1.663 0z"/>
        <path fill="#F5841F" stroke="#F5841F" stroke-linecap="round" stroke-linejoin="round" stroke-width=".25" d="M31.049 15.523L24.151 13.515 26.229 16.651 23.124 22.702 27.23 22.65 33.361 22.65zM9.47 13.515L2.572 15.523.273 22.65 6.392 22.65 10.497 22.702 7.392 16.651zM18.824 16.988L19.266 9.394 21.266 3.991 12.354 3.991 14.355 9.394 14.797 16.988 14.966 19.372 14.979 25.268 18.642 25.268 18.655 19.372z"/>
    </g>
</svg>
