<svg xmlns="http://www.w3.org/2000/svg" width="205" height="205" viewBox="0 0 205 205">
    <g fill="none" fill-rule="evenodd">
        <g>
            <path fill="#9CA4DC" d="M.91 162.7l102.16-58.783c.844-.406 2.054-.738 2.917-.309.784.392 2.077 1.2 2.65 1.514.433.24 1.94 1.108 1.003 1.64-.258.145-1.34.765-3.09 1.772-16.994 9.765-97.073 55.884-99.613 57.323-.53.3-1.307.421-2.121.37-.81-.048-1.643-.267-2.298-.633-.466-.262-.924-.52-1.375-.77-.608-.34-.93-.754-.963-1.139-.032-.381.211-.737.73-.985z" transform="matrix(-1 0 0 1 177.667 19.133)"/>
            <path fill="#5565D4" d="M7.356 53.063C3.229 55.44-.007 61.193.006 65.795l3.792 4.848 3.404-.667c1.861-3.252 9.021-6.09 7.35-12.731l69.252-37.833L104.716 5.19c-.089-.537.565-3.18-.019-3.532-.65-.395-1.292-.79-1.93-1.163-1.633-.966-3.716-.368-5.245.513L7.356 53.063z" transform="matrix(-1 0 0 1 177.667 19.133)"/>
            <path fill="#5565D4" d="M.18 156.666c.007 2.324.83 3.959 2.152 4.73l1.884 1.133c7.812-3.67 4.709-38.348 5.195-49.863L7.196 69.795 0 65.613l.18 91.053z" transform="matrix(-1 0 0 1 177.667 19.133)"/>
            <path fill="#2536B8" d="M106.835 6.583c-.012-4.676-3.324-6.568-7.397-4.216L9.272 54.423c-4.068 2.35-7.362 8.055-7.35 12.73l.174 90.666c.014 4.676 3.329 6.566 7.399 4.216l90.164-52.057c4.074-2.352 7.362-8.055 7.35-12.731l-.174-90.664z" transform="matrix(-1 0 0 1 177.667 19.133)"/>
            <path fill="#5565D4" fill-rule="nonzero" d="M51.37 98.518c.562-.322 1.096-.244 1.32.267 1.052 2.385.998 5.576-.136 9.028-1.066 3.235-3.066 6.67-5.97 9.837-.185.2-.378.359-.568.467-.541.315-1.059.25-1.299-.206-.318-.637.004-1.787.714-2.559 2.247-2.456 3.773-5.048 4.558-7.437.806-2.434.836-4.7.081-6.42-.287-.66.058-1.804.779-2.561.17-.177.348-.315.521-.416zm4.88-29.209c2.672-1.377 5.186-1.699 6.963-1.266 2.166.521 3.415 2.254 4.765 4.16 1.773 2.487 3.766 5.285 8.49 5.292.694.003.975.812.636 1.817-.247.707-.744 1.32-1.262 1.617-.216.126-.433.194-.636.194-5.482-.004-7.692-3.11-9.665-5.889-1.184-1.678-2.28-3.201-3.96-3.61-1.386-.339-3.36-.082-5.467 1.001-.16.082-.315.17-.474.26-1.537.891-3.12 2.228-4.555 4.116-1.817 2.392-2.937 4.605-3.58 6.582-.812 2.5-.88 4.683-.64 6.409.091.619.24 1.364.413 2.186 1.198 5.772 3.174 15.336-6.862 24.662-.14.125-.274.227-.41.305-.606.348-1.168.22-1.36-.363-.227-.727.192-1.871.94-2.572 7.57-7.024 5.926-14.984 4.934-19.769-.183-.89-.348-1.685-.44-2.378-.314-2.2-.213-5.036.86-8.359.85-2.612 2.3-5.502 4.62-8.551 1.91-2.528 4.01-4.315 6.036-5.485.22-.129.437-.247.653-.359zm2.15 34.838c2.218-.853 4.248.2 6.208 1.276.558.307.572 1.326.023 2.283-.27.474-.633.846-.998 1.056-.359.206-.717.258-.992.102-1.64-.894-3.33-1.773-4.69-1.259-.081.03-.166.071-.247.118-1.022.593-2.098 2.443-3.221 6.64-.21.778-.749 1.495-1.327 1.83-.162.095-.328.156-.49.183-.731.108-1.11-.602-.843-1.597 1.618-6.037 3.614-9.004 5.773-10.25.267-.153.534-.281.805-.382zM55.877 63.33c3.573-1.963 6.954-2.576 9.299-2.014 2.454.596 4.233 2.413 6.006 4.23 1.71 1.75 3.401 3.486 5.574 3.838.66.108.852 1.001.44 1.996-.27.64-.725 1.164-1.188 1.431-.26.153-.528.22-.765.183-2.297-.37-4.012-1.87-5.652-3.524l-.467-.476-.232-.24-.492-.5c-1.478-1.493-2.991-2.903-4.858-3.354-1.922-.467-4.735.06-7.722 1.702-.125.068-.248.139-.373.21-2.426 1.4-4.944 3.536-7.164 6.463-2.639 3.482-4.297 6.687-5.255 9.53-1.154 3.45-1.29 6.432-.903 8.767.697 4.27 1.113 7.482.734 10.703-.403 3.425-1.658 6.693-4.304 10.886-.268.417-.596.738-.924.928-.393.227-.785.263-1.066.054-.514-.379-.453-1.438.128-2.365 2.092-3.313 3.066-5.824 3.368-8.362.324-2.745-.061-5.712-.714-9.708-.47-2.86-.298-6.532 1.14-10.833 1.164-3.479 3.143-7.336 6.27-11.451 2.718-3.573 5.766-6.162 8.697-7.854.142-.085.28-.163.423-.24zm6.863-8.524c5.483-.812 10.339 1.252 13.614 5.908.126.166.233.319.325.464.37.575.122 1.702-.562 2.521-.213.254-.443.45-.67.582-.5.291-.985.264-1.238-.122-.108-.176-.207-.314-.298-.43-2.95-4.182-7.286-6.04-12.142-5.319-2.064.308-4.226 1.083-6.419 2.348-2.903 1.676-5.86 4.21-8.717 7.655-.146.176-.27.332-.37.46-4.493 5.567-7.119 11.31-8.391 16.852-1.557 6.775-1.144 13.31.325 18.896.193.748-.264 1.892-1.012 2.552-.118.1-.234.182-.348.25-.63.365-1.205.213-1.375-.427-1.576-6.05-2.013-13.176-.284-20.668 1.473-6.413 4.501-13.052 9.675-19.455.17-.213.311-.389.43-.528 3.286-3.966 6.694-6.89 10.043-8.825 2.531-1.462 5.029-2.359 7.414-2.714zm-6.154 20.24c3.477-2.01 5.156.027 6.653 2.546l.19.323c.127.218.252.437.378.657.633 1.114 1.28 2.244 2.064 2.94 1.428 1.267 3.15 2.136 5.028 2.753 1.896.625 3.96.997 6.062 1.214.666.081.882.948.49 1.943-.26.656-.73 1.215-1.211 1.492-.244.142-.494.21-.721.182-2.173-.237-4.339-.612-6.359-1.279-2.05-.67-3.928-1.627-5.509-3.025-.94-.832-1.665-2.084-2.372-3.343l-.184-.32-.184-.318c-1.141-1.945-2.372-3.585-4.65-2.27-.332.194-.69.451-1.073.779-1.41 1.208-2.264 2.447-2.747 3.638-.501 1.242-.67 2.528-.667 3.729-.004 2.829 2.375 5.743 5.593 8.166 4.027 3.018 9.289 5.13 12.988 5.346.687.04.94.877.565 1.881-.25.684-.735 1.27-1.235 1.557-.23.132-.464.203-.68.19-3.96-.22-9.536-2.45-13.766-5.624-3.614-2.72-6.284-6.203-6.28-9.885-.008-1.729.26-3.661 1.082-5.681.852-2.088 2.244-4.166 4.473-6.085.756-.646 1.442-1.143 2.072-1.506zm-.682 7.108c.678-.393 1.28-.173 1.394.551.123.768 2.464 3.994 6.9 6.863 2.694 1.753 6.132 3.28 10.264 3.928.66.095.852.988.44 1.983-.27.643-.725 1.168-1.188 1.435-.257.15-.518.217-.754.183-4.372-.677-7.986-2.29-10.812-4.118-4.843-3.13-7.459-7.123-7.63-8.132-.136-.798.381-1.939 1.156-2.54.078-.058.156-.11.23-.153zm-.293-31.589c5.478-3.164 10.897-4.406 15.18-2.97 1.3.439 2.501 1.112 3.557 2.057.477.44.373 1.516-.237 2.416-.257.382-.565.67-.873.846-.42.243-.833.267-1.11.02-.92-.816-1.96-1.408-3.079-1.787-3.773-1.262-8.565-.152-13.431 2.657-.23.132-.464.27-.697.412-5.14 3.124-10.291 8.088-14.368 14.118-1.32 1.953-2.521 4.004-3.58 6.149-.274.565-.688 1.012-1.104 1.252-.307.176-.616.24-.876.159-.613-.203-.714-1.17-.23-2.156 1.194-2.43 2.558-4.761 4.047-6.957 4.561-6.734 10.307-12.28 16.023-15.756.26-.155.518-.31.778-.46z" transform="matrix(-1 0 0 1 177.667 19.133)"/>
            <path fill="#2DFFFF" d="M76.62 83.613c-1.699.45-3.214 2.457-3.39 4.487-.176 2.03 1.058 3.31 2.754 2.863 1.699-.45 3.215-2.457 3.39-4.487.177-2.03-1.055-3.31-2.754-2.863z" opacity=".2" transform="matrix(-1 0 0 1 177.667 19.133)"/>
            <path fill="#2DFFFF" d="M76.523 84.744c-1.174.31-2.226 1.702-2.349 3.106-.121 1.404.731 2.29 1.909 1.98 1.178-.312 2.227-1.703 2.348-3.107.122-1.4-.73-2.291-1.908-1.98z" opacity=".2" transform="matrix(-1 0 0 1 177.667 19.133)"/>
            <path fill="#2DFFFF" d="M76.425 85.88c-.65.174-1.233.945-1.3 1.72-.068.778.406 1.269 1.056 1.096.65-.172 1.232-.944 1.3-1.719.067-.775-.403-1.269-1.056-1.096z" transform="matrix(-1 0 0 1 177.667 19.133)"/>
            <path fill="#2DFFFF" d="M63.614 73.427c-1.699.45-3.214 2.456-3.39 4.487-.176 2.03 1.059 3.31 2.754 2.86 1.699-.45 3.214-2.457 3.39-4.488.177-2.027-1.055-3.31-2.754-2.86z" opacity=".2" transform="matrix(-1 0 0 1 177.667 19.133)"/>
            <path fill="#2DFFFF" d="M63.516 74.558c-1.174.31-2.227 1.702-2.349 3.106-.122 1.404.731 2.29 1.909 1.98 1.174-.312 2.227-1.702 2.348-3.107.122-1.404-.734-2.29-1.908-1.98z" opacity=".2" transform="matrix(-1 0 0 1 177.667 19.133)"/>
            <path fill="#2DFFFF" d="M63.419 75.69c-.65.172-1.232.944-1.3 1.719-.068.778.406 1.269 1.056 1.096.65-.172 1.232-.944 1.3-1.719.067-.775-.406-1.265-1.056-1.096z" transform="matrix(-1 0 0 1 177.667 19.133)"/>
            <path fill="#2DFFFF" d="M50.668 82.172c-1.698.45-3.215 2.456-3.39 4.486-.177 2.031 1.059 3.31 2.754 2.86 1.699-.45 3.215-2.457 3.39-4.487.176-2.027-1.058-3.31-2.754-2.86z" opacity=".2" transform="matrix(-1 0 0 1 177.667 19.133)"/>
            <path fill="#2DFFFF" d="M50.57 83.302c-1.175.311-2.227 1.702-2.349 3.107-.121 1.404.731 2.29 1.909 1.98 1.174-.312 2.226-1.703 2.348-3.107.122-1.405-.734-2.291-1.908-1.98z" opacity=".2" transform="matrix(-1 0 0 1 177.667 19.133)"/>
            <path fill="#2DFFFF" d="M50.472 84.435c-.649.173-1.231.945-1.299 1.72-.067.778.406 1.269 1.056 1.096.65-.172 1.231-.944 1.3-1.719.067-.775-.407-1.27-1.057-1.097z" transform="matrix(-1 0 0 1 177.667 19.133)"/>
            <path fill="#2DFFFF" d="M65.128 88.822c-1.7.45-3.215 2.456-3.391 4.487-.176 2.03 1.06 3.31 2.754 2.863 1.7-.45 3.215-2.457 3.391-4.487.176-2.031-1.059-3.313-2.754-2.863z" opacity=".2" transform="matrix(-1 0 0 1 177.667 19.133)"/>
            <path fill="#2DFFFF" d="M65.03 89.953c-1.175.311-2.228 1.702-2.35 3.106-.121 1.404.732 2.291 1.91 1.98 1.173-.312 2.226-1.703 2.348-3.107.118-1.404-.735-2.291-1.909-1.98z" opacity=".2" transform="matrix(-1 0 0 1 177.667 19.133)"/>
            <path fill="#2DFFFF" d="M64.932 91.084c-.65.173-1.232.945-1.3 1.72-.067.778.406 1.268 1.056 1.096.65-.173 1.232-.944 1.3-1.719.068-.775-.407-1.269-1.056-1.097z" transform="matrix(-1 0 0 1 177.667 19.133)"/>
            <path fill="#2DFFFF" d="M69.793 98.112c-1.698.45-3.214 2.458-3.39 4.488-.177 2.03 1.059 3.31 2.754 2.862 1.7-.45 3.215-2.456 3.391-4.487.176-2.03-1.056-3.309-2.755-2.863z" opacity=".2" transform="matrix(-1 0 0 1 177.667 19.133)"/>
            <path fill="#2DFFFF" d="M69.695 99.243c-1.174.312-2.227 1.702-2.349 3.107-.121 1.404.732 2.29 1.909 1.98 1.175-.312 2.227-1.703 2.349-3.107.121-1.401-.732-2.288-1.909-1.98z" opacity=".2" transform="matrix(-1 0 0 1 177.667 19.133)"/>
            <path fill="#2DFFFF" d="M69.597 100.379c-.65.173-1.232.944-1.3 1.72-.068.774.406 1.268 1.056 1.095.65-.172 1.232-.943 1.3-1.718.067-.779-.404-1.27-1.056-1.097z" transform="matrix(-1 0 0 1 177.667 19.133)"/>
            <path fill="#2DFFFF" d="M51.852 96.671c-1.699.45-3.215 2.457-3.39 4.487-.176 2.03 1.058 3.31 2.754 2.863 1.698-.45 3.215-2.457 3.39-4.487.177-2.03-1.055-3.313-2.754-2.863z" opacity=".2" transform="matrix(-1 0 0 1 177.667 19.133)"/>
            <path fill="#2DFFFF" d="M51.753 97.8c-1.173.312-2.226 1.702-2.348 3.106-.122 1.405.731 2.292 1.908 1.98 1.175-.31 2.227-1.702 2.349-3.106.122-1.405-.735-2.29-1.909-1.98z" opacity=".2" transform="matrix(-1 0 0 1 177.667 19.133)"/>
            <path fill="#2DFFFF" d="M51.656 98.932c-.65.173-1.232.945-1.3 1.72-.067.778.407 1.269 1.056 1.096.65-.173 1.233-.944 1.3-1.719.068-.778-.406-1.269-1.056-1.097z" transform="matrix(-1 0 0 1 177.667 19.133)"/>
            <path fill="#2DFFFF" d="M46.62 112.02c-1.698.451-3.215 2.457-3.39 4.488-.177 2.03 1.059 3.31 2.754 2.86 1.699-.45 3.214-2.457 3.39-4.488.176-2.027-1.058-3.306-2.754-2.86z" opacity=".2" transform="matrix(-1 0 0 1 177.667 19.133)"/>
            <path fill="#2DFFFF" d="M46.522 113.151c-1.175.312-2.227 1.702-2.349 3.107-.121 1.404.731 2.29 1.909 1.98 1.174-.312 2.226-1.703 2.348-3.107.122-1.405-.734-2.29-1.908-1.98z" opacity=".2" transform="matrix(-1 0 0 1 177.667 19.133)"/>
            <path fill="#2DFFFF" d="M46.425 114.287c-.65.173-1.232.944-1.3 1.72-.068.774.406 1.269 1.056 1.096.65-.173 1.232-.945 1.3-1.72.067-.778-.407-1.268-1.056-1.096z" transform="matrix(-1 0 0 1 177.667 19.133)"/>
            <path fill="#2DFFFF" d="M41.392 100.72c-1.699.449-3.214 2.456-3.39 4.486-.176 2.03 1.059 3.31 2.754 2.86 1.699-.45 3.215-2.457 3.39-4.488.177-2.026-1.059-3.306-2.754-2.859z" opacity=".2" transform="matrix(-1 0 0 1 177.667 19.133)"/>
            <path fill="#2DFFFF" d="M41.295 101.848c-1.174.312-2.226 1.702-2.348 3.107-.122 1.404.73 2.29 1.909 1.98 1.177-.312 2.226-1.702 2.348-3.107.119-1.401-.734-2.287-1.909-1.98z" opacity=".2" transform="matrix(-1 0 0 1 177.667 19.133)"/>
            <path fill="#2DFFFF" d="M41.197 102.987c-.65.172-1.232.944-1.3 1.719-.067.775.407 1.269 1.056 1.097.65-.173 1.232-.945 1.3-1.72.067-.778-.406-1.269-1.056-1.096z" transform="matrix(-1 0 0 1 177.667 19.133)"/>
            <path fill="#2DFFFF" d="M40.546 84.023c-1.699.45-3.214 2.456-3.39 4.487-.176 2.03 1.059 3.31 2.754 2.863 1.699-.45 3.215-2.457 3.39-4.487.177-2.034-1.055-3.314-2.754-2.863z" opacity=".2" transform="matrix(-1 0 0 1 177.667 19.133)"/>
            <path fill="#2DFFFF" d="M40.448 85.15c-1.174.311-2.227 1.702-2.349 3.106-.122 1.404.731 2.291 1.909 1.98 1.174-.312 2.227-1.703 2.348-3.107.122-1.4-.734-2.288-1.908-1.98z" opacity=".2" transform="matrix(-1 0 0 1 177.667 19.133)"/>
            <path fill="#2DFFFF" d="M40.35 86.285c-.65.173-1.231.945-1.299 1.72-.068.778.407 1.268 1.056 1.096.65-.173 1.232-.944 1.3-1.72.067-.777-.406-1.268-1.056-1.096z" transform="matrix(-1 0 0 1 177.667 19.133)"/>
            <path fill="#2DFFFF" d="M48.844 65.872c-1.699.45-3.215 2.457-3.39 4.487-.177 2.03 1.058 3.31 2.754 2.86 1.695-.45 3.214-2.457 3.39-4.488.176-2.027-1.059-3.306-2.754-2.86z" opacity=".2" transform="matrix(-1 0 0 1 177.667 19.133)"/>
            <path fill="#2DFFFF" d="M48.745 67.002c-1.174.312-2.227 1.702-2.348 3.107-.122 1.404.731 2.29 1.908 1.98 1.174-.312 2.227-1.703 2.349-3.107.118-1.4-.735-2.288-1.909-1.98z" opacity=".2" transform="matrix(-1 0 0 1 177.667 19.133)"/>
            <path fill="#2DFFFF" d="M48.647 68.138c-.65.173-1.232.944-1.3 1.72-.067.774.406 1.268 1.056 1.096.65-.173 1.231-.944 1.3-1.72.067-.778-.407-1.268-1.056-1.096z" transform="matrix(-1 0 0 1 177.667 19.133)"/>
            <path fill="#2DFFFF" d="M58.702 66.158c-1.7.45-3.215 2.457-3.391 4.488-.176 2.03 1.06 3.31 2.754 2.859 1.699-.45 3.215-2.457 3.391-4.487.176-2.027-1.056-3.31-2.754-2.86z" opacity=".2" transform="matrix(-1 0 0 1 177.667 19.133)"/>
            <path fill="#2DFFFF" d="M58.603 67.29c-1.174.31-2.227 1.701-2.348 3.106-.123 1.404.73 2.29 1.908 1.98 1.174-.312 2.226-1.703 2.348-3.107.122-1.405-.73-2.291-1.908-1.98z" opacity=".2" transform="matrix(-1 0 0 1 177.667 19.133)"/>
            <path fill="#2DFFFF" d="M58.505 68.423c-.65.172-1.23.944-1.299 1.718-.067.779.406 1.27 1.056 1.097.65-.173 1.232-.944 1.3-1.72.067-.777-.403-1.268-1.057-1.095z" transform="matrix(-1 0 0 1 177.667 19.133)"/>
            <path fill="#2DFFFF" d="M77.167 67.316c-1.698.45-3.214 2.456-3.39 4.487-.176 2.03 1.059 3.309 2.754 2.863 1.699-.45 3.215-2.457 3.39-4.488.176-2.03-1.055-3.313-2.754-2.862z" opacity=".2" transform="matrix(-1 0 0 1 177.667 19.133)"/>
            <path fill="#2DFFFF" d="M77.069 68.446c-1.174.312-2.227 1.702-2.349 3.107-.121 1.404.731 2.29 1.909 1.98 1.175-.312 2.227-1.703 2.348-3.107.122-1.405-.73-2.291-1.908-1.98z" opacity=".2" transform="matrix(-1 0 0 1 177.667 19.133)"/>
            <path fill="#2DFFFF" d="M76.972 69.578c-.65.173-1.232.944-1.3 1.719-.067.778.406 1.27 1.056 1.097.65-.173 1.232-.945 1.3-1.72.067-.774-.404-1.269-1.056-1.096z" transform="matrix(-1 0 0 1 177.667 19.133)"/>
            <path fill="#2DFFFF" d="M72.883 47.095c-1.698.45-3.215 2.456-3.39 4.487-.176 2.03 1.059 3.31 2.754 2.862 1.7-.45 3.215-2.456 3.391-4.487.176-2.03-1.056-3.313-2.755-2.862z" opacity=".2" transform="matrix(-1 0 0 1 177.667 19.133)"/>
            <path fill="#2DFFFF" d="M72.786 48.224c-1.174.311-2.227 1.702-2.348 3.106-.122 1.405.73 2.291 1.908 1.98 1.174-.311 2.227-1.702 2.348-3.106.123-1.405-.73-2.291-1.908-1.98z" opacity=".2" transform="matrix(-1 0 0 1 177.667 19.133)"/>
            <path fill="#2DFFFF" d="M72.687 49.359c-.65.172-1.231.944-1.299 1.719-.068.775.406 1.269 1.056 1.096.65-.172 1.231-.944 1.3-1.719.07-.778-.403-1.269-1.057-1.096z" transform="matrix(-1 0 0 1 177.667 19.133)"/>
            <path fill="#2DFFFF" d="M50.983 51.827c-1.698.45-3.215 2.457-3.39 4.487-.177 2.03 1.059 3.31 2.754 2.86 1.699-.45 3.215-2.457 3.39-4.487.176-2.027-1.055-3.31-2.754-2.86z" opacity=".2" transform="matrix(-1 0 0 1 177.667 19.133)"/>
            <path fill="#2DFFFF" d="M50.886 52.957c-1.174.31-2.227 1.702-2.348 3.106-.122 1.404.73 2.29 1.908 1.98 1.174-.312 2.227-1.703 2.349-3.107.122-1.404-.735-2.29-1.909-1.98z" opacity=".2" transform="matrix(-1 0 0 1 177.667 19.133)"/>
            <path fill="#2DFFFF" d="M50.787 54.088c-.65.173-1.231.945-1.299 1.72-.067.778.406 1.269 1.056 1.096.65-.173 1.231-.944 1.299-1.72.068-.774-.406-1.268-1.056-1.096z" transform="matrix(-1 0 0 1 177.667 19.133)"/>
            <path fill="#2DFFFF" d="M36.53 69.92c-1.699.451-3.214 2.457-3.39 4.488-.176 2.03 1.059 3.31 2.754 2.86 1.699-.451 3.215-2.457 3.39-4.488.18-2.027-1.055-3.31-2.754-2.86z" opacity=".2" transform="matrix(-1 0 0 1 177.667 19.133)"/>
            <path fill="#2DFFFF" d="M36.436 71.052c-1.174.31-2.226 1.702-2.349 3.106-.121 1.404.731 2.29 1.909 1.98 1.178-.312 2.227-1.703 2.348-3.107.119-1.404-.734-2.291-1.908-1.98z" opacity=".2" transform="matrix(-1 0 0 1 177.667 19.133)"/>
            <path fill="#2DFFFF" d="M36.336 72.186c-.65.173-1.232.944-1.3 1.72-.067.774.406 1.268 1.056 1.095.65-.172 1.232-.943 1.3-1.718.07-.775-.403-1.27-1.056-1.097z" transform="matrix(-1 0 0 1 177.667 19.133)"/>
            <path fill="#2DFFFF" d="M35.345 91.782c-1.698.45-3.215 2.457-3.39 4.487-.176 2.03 1.059 3.31 2.754 2.86 1.699-.45 3.214-2.457 3.39-4.487.176-2.028-1.055-3.31-2.754-2.86z" opacity=".2" transform="matrix(-1 0 0 1 177.667 19.133)"/>
            <path fill="#2DFFFF" d="M35.247 92.913c-1.175.311-2.227 1.702-2.349 3.106-.121 1.405.731 2.291 1.909 1.98 1.174-.312 2.227-1.702 2.348-3.107.122-1.404-.73-2.29-1.908-1.98z" opacity=".2" transform="matrix(-1 0 0 1 177.667 19.133)"/>
            <path fill="#2DFFFF" d="M35.15 94.046c-.65.173-1.232.944-1.3 1.72-.068.777.406 1.268 1.056 1.096.65-.173 1.232-.945 1.3-1.72.067-.774-.404-1.268-1.057-1.096z" transform="matrix(-1 0 0 1 177.667 19.133)"/>
            <path fill="#2DFFFF" d="M63.933 51.827c-1.699.45-3.215 2.457-3.39 4.487-.177 2.03 1.059 3.31 2.754 2.86 1.699-.45 3.214-2.457 3.39-4.487.176-2.027-1.058-3.31-2.754-2.86z" opacity=".2" transform="matrix(-1 0 0 1 177.667 19.133)"/>
            <path fill="#2DFFFF" d="M63.835 52.957c-1.175.31-2.227 1.702-2.349 3.106-.121 1.404.731 2.29 1.909 1.98 1.174-.312 2.227-1.703 2.348-3.107.119-1.404-.734-2.29-1.908-1.98z" opacity=".2" transform="matrix(-1 0 0 1 177.667 19.133)"/>
            <path fill="#2DFFFF" d="M63.736 54.089c-.65.172-1.232.944-1.3 1.719-.067.775.407 1.269 1.056 1.096.65-.173 1.233-.944 1.3-1.719.068-.778-.406-1.269-1.056-1.096z" transform="matrix(-1 0 0 1 177.667 19.133)"/>
        </g>
        <g>
            <path fill="#35D6D1" fill-rule="nonzero" d="M91.565 58.929c.09-6.093-2.81-11.582-7.603-14.398L9.697.837c-4.065-2.395-7.465.529-7.554 6.5l-.774 53.471c-.083 5.645 2.604 10.74 7.053 13.353l68.213 40.14c6.225 3.663 14.148-1.65 14.265-9.554l.665-45.818z" transform="translate(12.983 69.7)"/>
            <path fill="#F6F6F6" fill-rule="nonzero" d="M90.198 59.613c.089-6.093-2.81-11.582-7.602-14.398L8.33 1.52C4.266-.875.866 2.05.776 8.02L.002 61.492c-.082 5.645 2.605 10.74 7.053 13.353l68.213 40.139c6.224 3.664 14.149-1.649 14.265-9.553l.665-45.818z" transform="translate(12.983 69.7)"/>
            <path fill="#FFF" fill-rule="nonzero" d="M50.086 74.703c-5.675-12.438-4.554-25.067 2.504-28.207 7.058-3.14 17.38 4.396 23.057 16.834 5.675 12.438 4.555 25.067-2.504 28.208-7.058 3.14-17.38-4.397-23.057-16.835z" transform="translate(12.983 69.7)"/>
            <path fill="#00B1BB" fill-rule="nonzero" d="M56.768 75.657c-.968-.673-1.515-1.943-1.404-3.275.232-2.848 1.662-3.988 2.708-4.03.423-.02.857.097 1.286.097.237 0 .48 0 .719.02l.02.007c.19.014.375.035.56.076l.065.014v.006l.277.049v.006c.098-.061.198-.116.296-.178.027-.014.132-.117.145-.076.006-.061-.007-.15-.007-.206l-.039-1.757c0-.007.007-.014.007-.02-.23-.454-.428-.948-.567-1.504-.1-.384-.158-.762-.197-1.14-.647-.473-.831-1.736-.923-2.58-.073-.68-.19-2.334.487-1.868-.013-.102-.026-.199-.04-.288-.091-.576-.17-1.146-.184-1.689-.006-.535.06-1.036.244-1.366.06-.11.151-.199.27-.137-.045-.158-.072-.316-.072-.487.033-1.29.863-1.414 1.483-1.325.85.117 1.76.501 2.63 1.387.868.885 1.699 2.334 2.1 3.96.054.206.093.44.087.618.072.11.132.254.171.385.191.576.257 1.167.25 1.695-.006.529-.085.996-.171 1.449l-.04.24c.547.508.475 1.888.422 2.437-.072.769-.25 1.86-.955 1.373-.092.803-.363 1.42-.804 1.702l.04 1.71c0 .082-.007.178 0 .267.026.048.085.124.11.165.16.233.31.467.47.707l1.054 1.31c.171.207.349.413.52.619.521.618 1.061 1.263 1.47 1.716.401.44.856.933 1.219 1.572.408.714.876 2.348 1.226 4.084.362 1.785-1.345 3.281-2.709 2.375l-12.224-8.12zM67.2 66.348c.007-.055.013-.123.02-.192l-.02.192zM38.267 46.147L15.85 32.117 15.717 40.636 38.133 54.667zM4.234 41.683L4.1 50.282 38.132 71.75 38.267 63.159z" transform="translate(12.983 69.7)"/>
            <path stroke="#FFF" stroke-linecap="round" stroke-linejoin="round" stroke-width="1.252" d="M46.718 77.25c-7.038-15.533-5.36-31.353 3.747-35.334C59.573 37.935 72.661 47.3 79.7 62.833c7.038 15.533 5.36 31.353-3.747 35.334-9.108 3.981-22.196-5.383-29.234-20.916z" transform="translate(12.983 69.7)"/>
        </g>
        <g fill-rule="nonzero">
            <path fill="#A8B4F7" d="M2.787 28.025l27.295-16.834c.798-.49 2.689-1.888 3.393-1.58l.526.366L41 14.29l-5.507 7.733-.134 7.408c-.083 4.745-3.202 10.504-6.928 12.802l-13.075 8.064-6.252 9.837-7.188-4.01c-.12-.082-.233-.168-.347-.265l-.023-.016v-.003C.55 54.957-.038 53.377.002 51.237l.333-18.68c.03-1.677 1.134-3.718 2.452-4.532z" transform="matrix(-1 0 0 1 192.017 30.067)"/>
            <path fill="#D3D9FB" d="M13.298 60.005l21.288-12.38c3.636-2.115 6.683-7.745 6.765-12.513l.332-18.767c.03-1.689-.997-2.456-2.287-1.709L9.563 31.986c-1.287.747-2.367 2.741-2.396 4.43l-.332 18.767c-.08 4.768 2.827 6.94 6.463 4.822z" transform="matrix(-1 0 0 1 192.017 30.067)"/>
            <path fill="#FFF" d="M37.396 41c.659-.01 1.208-.551 1.222-1.206l.332-18.806c.01-.655-.52-1.181-1.178-1.171-.66.01-1.209.55-1.222 1.205l-.333 18.805c-.013.655.516 1.183 1.179 1.173z" transform="matrix(-1 0 0 1 192.017 30.067)"/>
            <path fill="#D3D9FB" d="M8.523 28.197c1.484.744 4.075.652 5.783-.203 1.71-.854 1.89-2.147.402-2.891-1.488-.744-4.076-.652-5.783.203-1.707.854-1.888 2.15-.402 2.891z" transform="matrix(-1 0 0 1 192.017 30.067)"/>
            <path fill="#D3D9FB" d="M8.523 26.83c1.484.744 4.077.652 5.783-.202 1.708-.854 1.892-2.149.404-2.892-1.489-.743-4.077-.651-5.785.203-1.707.857-1.888 2.151-.402 2.892zM24.606 17.48c-.125-1.11 1.606-2.188 3.867-2.407 2.26-.22 4.195.502 4.32 1.613.126 1.11-1.605 2.188-3.866 2.408-2.26.22-4.195-.503-4.32-1.613z" transform="matrix(-1 0 0 1 192.017 30.067)"/>
            <path fill="#D3D9FB" d="M26.29 17.264c1.485.743 4.076.651 5.783-.203 1.707-.854 1.892-2.148.403-2.891-1.485-.744-4.077-.652-5.784.202-1.707.857-1.889 2.151-.403 2.892z" transform="matrix(-1 0 0 1 192.017 30.067)"/>
            <path fill="#D3D9FB" d="M14.146 24.716l.148-8.593c-.167-3.031 1.656-7.486 4.572-9.134l3.018-1.706c1.05-.594 2.044-.751 2.797-.443.583.239 1.05.759 1.347 1.484.213.524.295 1.101.282 1.695l-.164 7.335c.19 1.269 5.47 1.074 5.282-.195l-.105-8.66c-.425-2.833-2.017-5.012-4.37-5.972-2.246-.917-4.977-.628-7.491.792l-3.019 1.705c-4.788 2.706-7.286 7.298-7.56 14.069l.003 8.228c.178 1.14 5.45.665 5.26-.605z" transform="matrix(-1 0 0 1 192.017 30.067)"/>
            <path fill="#1B289E" d="M28.7 33.088c.013-2.161-1.659-2.97-3.735-1.806-2.074 1.163-3.769 3.856-3.782 6.015-.012 2.16 1.66 2.968 3.735 1.804 2.076-1.163 3.765-3.856 3.782-6.013z" transform="matrix(-1 0 0 1 192.017 30.067)"/>
            <path fill="#1B289E" d="M25.415 32.87l-.284.1c-1.046.366-1.898 2.045-1.898 3.734l.01 5.237c.004 1.688.863 2.77 1.908 2.405l.285-.101c1.045-.367 1.897-2.045 1.897-3.734l-.01-5.236c-.003-1.686-.862-2.768-1.908-2.405z" transform="matrix(-1 0 0 1 192.017 30.067)"/>
            <path fill="#2536B8" d="M25.21 40.291l-.005-3.491c.845-1.21 1.393-2.631 1.4-3.875.007-.93-.293-1.613-.795-2 1.663-.574 2.902.29 2.89 2.185-.007 1.247-.555 2.665-1.4 3.875l.005 3.491c.004 1.704-.792 3.398-1.77 3.768l-.265.1c-.539.206-1.025-.04-1.353-.588.748-.648 1.297-2.052 1.293-3.465z" transform="matrix(-1 0 0 1 192.017 30.067)"/>
            <path fill="#D3D9FB" d="M9.553 25.631c.993.496 2.719.436 3.857-.135 1.139-.57 1.26-1.434.268-1.928s-2.718-.434-3.857.135c-1.138.57-1.256 1.434-.268 1.928zM27.32 16.748c.992.495 2.718.435 3.857-.135 1.138-.57 1.26-1.434.268-1.928-.992-.495-2.718-.435-3.856.135-1.139.57-1.258 1.434-.27 1.928z" transform="matrix(-1 0 0 1 192.017 30.067)"/>
        </g>
    </g>
</svg>
