<svg xmlns="http://www.w3.org/2000/svg" width="112" height="112" viewBox="0 0 112 112">
    <g fill="none" fill-rule="evenodd">
        <g fill-rule="nonzero">
            <g>
                <path fill="#008AA0" d="M11.337.453L5.962 2.965l.962 3.35-.016 1.642c-.346.351-.577.895-.638 1.612l-.087 1.014c-.018.214-.018.438-.007.664L4.953 8.918l-3.666 1.564 3.627 10.96-1.941 2.125 4.43 8.776 1.748-2.338 2.873 5.11.851.194c.383.984 2.642 6.915 2.642 6.915l4.687-2.192-1.346-1.925c.061.05.125.1.189.143l.828.58c.61.428 1.196.592 1.698.528l2.327 4.234 5.846-2.736-.01-.043c.112-.025.222-.058.327-.105l.648-.309c1.257-.598 1.453-2.854.435-5.044-.061-.13-.111-.258-.157-.386l3.674-1.742v-.003c.609-.262 1.035-.931 1.122-1.945l.087-1.014c.17-1.97-.997-4.478-2.606-5.604-1.421-.993-1.95-3.597-.84-4.124 1.258-.598 1.454-2.855.436-5.045l-.525-1.125c-1.017-2.188-2.863-3.478-4.12-2.882-1.111.527-2.754-1.546-2.606-3.286.171-1.971-.997-4.478-2.605-5.604l-.829-.58c-1.001-.701-1.94-.699-2.546-.121l-3.297 1.544c-.078-.13-.153-.268-.221-.416-.986-2.12-2.745-3.389-3.998-2.928L12.111.09l-.062.03c-.018.009-.039.013-.057.02l-.648.308c-.004.003-.004.005-.007.005zM21.94 19.665c1.798 3.85 1.456 7.812-.764 8.85-2.22 1.04-5.479-1.237-7.277-5.087-1.798-3.85-1.455-7.812.765-8.851 2.22-1.04 5.478 1.238 7.276 5.088z" transform="translate(5.973 10.08) translate(0 23.893)"/>
                <path fill="#00B1BB" d="M12.79 6.437c-.151 1.74-1.945 1.41-2.844-.523-1.017-2.187-2.863-3.478-4.12-2.882l-.648.309c-1.257.598-1.454 2.854-.436 5.044.899 1.934.004 3.54-1.417 2.546-1.609-1.126-3.053-.44-3.222 1.53l-.086 1.014c-.172 1.97.997 4.478 2.605 5.604 1.422.993 1.951 3.597.84 4.124-1.257.598-1.454 2.855-.436 5.044l.525 1.126c1.018 2.188 2.863 3.478 4.12 2.882 1.112-.527 2.754 1.546 2.606 3.286-.17 1.97.997 4.478 2.606 5.604l.828.58c1.609 1.126 3.053.44 3.222-1.53.15-1.74 1.944-1.409 2.843.523 1.017 2.188 2.863 3.478 4.12 2.882l.648-.308c1.258-.599 1.454-2.855.436-5.045-.899-1.934-.004-3.54 1.417-2.546 1.609 1.126 3.053.44 3.222-1.53l.086-1.014c.172-1.97-.997-4.478-2.605-5.604-1.422-.993-1.951-3.596-.84-4.124 1.257-.596 1.453-2.854.436-5.044l-.525-1.126c-1.017-2.188-2.863-3.478-4.12-2.882-1.112.528-2.754-1.546-2.606-3.286.171-1.97-.997-4.478-2.606-5.604l-.828-.58c-1.609-1.123-3.05-.438-3.222 1.53zm9.304 21.934c-.422 4.889-4.002 6.588-7.995 3.795-3.993-2.793-6.888-9.02-6.466-13.907.422-4.889 4.002-6.588 7.995-3.795 3.992 2.79 6.888 9.018 6.466 13.907z" transform="translate(5.973 10.08) translate(0 23.893)"/>
            </g>
            <g>
                <path fill="#8BABE0" d="M30.613 1.493L10.827 12.095 14.909 14.56 28.862 6.972 30.422 4.285z" transform="translate(5.973 10.08) translate(69.813 71.68)"/>
                <path fill="#8BABE0" d="M18.683 10.4c-3.021-1.818-7.985-1.93-11.087-.25-3.102 1.68-3.166 4.514-.145 6.33 3.021 1.818 7.985 1.93 11.087.25 3.1-1.68 3.166-4.514.145-6.33z" transform="translate(5.973 10.08) translate(69.813 71.68)"/>
                <path fill="#D9E9FF" d="M29.295 0L10.827 9.914 14.861 12.32 28.652 4.917 30.613 1.578z" transform="translate(5.973 10.08) translate(69.813 71.68)"/>
                <path fill="#D9E9FF" d="M18.309 8.16c-3.021-1.818-7.985-1.93-11.087-.25-3.101 1.68-3.165 4.513-.144 6.33 3.02 1.818 7.984 1.93 11.086.25 3.102-1.68 3.166-4.514.145-6.33z" transform="translate(5.973 10.08) translate(69.813 71.68)"/>
                <path fill="#BAD4F5" d="M16.332 8.86c-2.16-1.288-5.706-1.366-7.92-.177-2.216 1.19-2.26 3.198-.104 4.484 2.16 1.288 5.704 1.366 7.92.176 2.215-1.19 2.26-3.198.104-4.484z" transform="translate(5.973 10.08) translate(69.813 71.68)"/>
                <path fill="#8BABE0" d="M11.2 12.931c-.017.723-1.032 1.283-2.27 1.255-1.236-.029-2.225-.637-2.21-1.357.017-.723 1.032-1.283 2.27-1.255 1.236.029 2.225.637 2.21 1.357z" transform="translate(5.973 10.08) translate(69.813 71.68)"/>
                <path fill="#C9D5F5" d="M11.2 13.256c-.401.347-1.173.573-2.054.556-.905-.018-1.68-.287-2.053-.664.899-.73 3.602-.496 4.107.108z" transform="translate(5.973 10.08) translate(69.813 71.68)"/>
                <path fill="#BAD4F5" d="M29.684.373L15.307 8.266 15.489 8.587 29.867.694zM30.05.747L13.067 10.498 13.257 10.827 30.24 1.075zM30.053 2.24L15.68 10.5 15.867 10.827 30.24 2.566z" transform="translate(5.973 10.08) translate(69.813 71.68)"/>
                <path fill="#7989E9" d="M7.873 12.773c-1.252-1.602-3.395-2.382-5.34-1.697-1.769.623-2.564 2.4-2.532 4.202.084 4.496 5.473 5.402 8.07 2.345.458-.54-.298-1.35-.76-.807-1.914 2.254-6.118 2.098-6.212-1.514-.095-3.62 3.963-4.336 5.978-1.758.442.562 1.232-.212.796-.77z" transform="translate(5.973 10.08) translate(69.813 71.68)"/>
                <path fill="#00B1BB" d="M2.932 18.084c.066-.097-.056-.211-.155-.144-1.267.854-4.06 3.158.414 4.495 5.567 1.661 9.993.398 11.152 3.325l.533-2.8s3.309.978 3.027.792c-.28-.188-1.287-3.02-6.987-2.962-5.39.052-9.807-.086-7.984-2.706z" transform="translate(5.973 10.08) translate(69.813 71.68)"/>
            </g>
            <g>
                <path fill="#008AA0" d="M5.604.217L2.946 1.43l.476 1.619-.007.792c-.172.17-.286.433-.317.779l-.044.489c-.009.104-.009.212-.003.321l-.604-1.124-1.814.755 1.794 5.292-.959 1.027 2.192 4.238.864-1.13 1.422 2.47.42.093c.189.476 1.305 3.34 1.305 3.34l2.318-1.059-.666-.929c.032.024.062.048.093.07l.41.28c.3.205.591.285.838.254l1.15 2.045 2.89-1.321-.005-.02c.056-.013.11-.028.16-.052l.32-.149c.622-.289.718-1.379.216-2.436-.03-.064-.056-.125-.077-.187l1.817-.842v-.001c.3-.127.511-.45.555-.94l.043-.489c.084-.951-.493-2.163-1.288-2.707-.703-.48-.964-1.736-.414-1.991.62-.29.717-1.38.215-2.437l-.26-.544c-.502-1.057-1.415-1.68-2.037-1.39-.55.254-1.361-.747-1.288-1.587.084-.951-.493-2.163-1.288-2.707l-.41-.279c-.495-.338-.959-.337-1.258-.058l-1.63.744c-.038-.061-.075-.128-.11-.2C7.48.436 6.61-.178 5.99.046L5.988.044l-.032.014-.028.01-.32.15c-.002-.003-.002 0-.004 0zm5.244 9.277c.89 1.858.72 3.773-.378 4.274-1.098.501-2.71-.599-3.599-2.457-.889-1.858-.719-3.773.378-4.274 1.098-.501 2.71.599 3.599 2.457z" transform="translate(5.973 10.08) translate(56)"/>
                <path fill="#00B1BB" d="M6.323 3.102c-.073.84-.96.68-1.405-.253-.503-1.058-1.416-1.68-2.038-1.391l-.32.148c-.621.29-.718 1.38-.215 2.437.444.934.003 1.71-.7 1.228-.797-.544-1.51-.212-1.593.74L.008 6.5c-.084.951.494 2.162 1.288 2.706.704.481.965 1.737.415 1.992-.621.29-.72 1.38-.215 2.437l.259.544c.502 1.057 1.416 1.68 2.037 1.39.55-.254 1.362.747 1.288 1.587-.084.951.494 2.162 1.288 2.706l.41.28c.797.543 1.509.212 1.593-.74.073-.84.96-.68 1.405.253.503 1.058 1.416 1.68 2.038 1.391l.32-.148c.621-.29.717-1.38.215-2.437-.444-.934-.003-1.709.7-1.228.797.544 1.509.212 1.593-.74l.044-.489c.084-.951-.494-2.162-1.288-2.707-.704-.48-.965-1.736-.415-1.991.621-.29.717-1.38.215-2.437l-.259-.544c-.502-1.057-1.416-1.68-2.037-1.39-.55.254-1.362-.747-1.289-1.587.085-.951-.493-2.162-1.288-2.706l-.41-.28c-.794-.542-1.508-.211-1.592.74zm4.6 10.592c-.209 2.362-1.978 3.181-3.954 1.833C4.995 14.179 3.563 11.17 3.77 8.81c.208-2.36 1.978-3.18 3.954-1.832 1.974 1.348 3.406 4.354 3.198 6.715z" transform="translate(5.973 10.08) translate(56)"/>
            </g>
            <g>
                <path fill="#A8B4F7" d="M55.473 20.946s-13.332 3.15-20.79-13.907c-4.868 6.096-12.075 1.456-16.608-2.645L13.86 0c-2.686 1.059-5.335 2.816-7.887 4.658l.564 4.153 1.309 1.716c-6.476 18.395 12.31 45.136 15.46 49.79 3.607 5.338 14.332 15.843 14.332 15.843s4.055-1.969 7.886-4.658c3.28-2.307 22.63-18.525 9.95-50.556z" transform="translate(5.973 10.08) translate(20.533 8.213)"/>
                <path fill="#D3D9FB" d="M47.612 25.833s-13.348 3.155-20.814-13.93c-7.585 9.507-20.847-7.05-20.847-7.05-16.373 16.289 5.845 55.067 9.456 60.414 2.473 3.66 6.066 8.746 8.086 11.589.949 1.336 2.394 2.061 3.761 1.894 2.906-.365 7.903-1.124 10.398-2.281 3.641-1.693 26.11-17.97 9.96-50.636z" transform="translate(5.973 10.08) translate(20.533 8.213)"/>
                <path fill="#F13202" d="M42.104 29.73s-10.55 2.504-16.447-11.064c-5.995 7.548-16.474-5.6-16.474-5.6C-3.756 26.002 13.8 56.8 16.655 61.047c1.54 2.29 3.662 5.524 5.288 8.017 1.477 2.26 3.91 3.405 6.077 2.853 2.147-.547 4.726-1.281 6.21-1.974 2.88-1.341 20.634-14.268 7.874-40.212z" transform="translate(5.973 10.08) translate(20.533 8.213)"/>
                <path fill="#D9340A" d="M42.126 29.725S31.63 32.23 25.76 18.667l.374 53.304c.663.122 1.33.111 1.978-.053 2.137-.547 4.703-1.281 6.18-1.974 2.864-1.342 20.533-14.27 7.834-40.219z" transform="translate(5.973 10.08) translate(20.533 8.213)"/>
            </g>
            <g>
                <path fill="#D3D9FB" d="M9.015 1.056C4.637-1.421 1.047.609 1.047 5.579s3.59 11.06 7.968 13.553c4.378 2.477 7.969.447 7.969-4.523s-3.59-11.06-7.969-13.553z" transform="translate(5.973 10.08) translate(69.813 14.56)"/>
                <path fill="#FFF" d="M7.968 1.312C3.59-1.164 0 .865 0 5.836c0 4.97 3.59 11.058 7.968 13.552 4.378 2.477 7.968.447 7.968-4.523S12.364 3.806 7.968 1.312z" transform="translate(5.973 10.08) translate(69.813 14.56)"/>
            </g>
        </g>
        <path fill="#D9340A" d="M80.18 29.743c.37-.18.817-.026.998.344l4.746 9.731c.18.37.027.818-.344.999-.37.18-.817.026-.998-.344l-4.746-9.731c-.18-.37-.027-.818.344-.999z"/>
        <path fill="#D9340A" d="M87.711 32.84c.194.364.055.816-.309 1.01l-6.922 3.68c-.364.193-.816.055-1.01-.309-.193-.364-.055-.816.309-1.01l6.922-3.68c.364-.194.816-.056 1.01.308z"/>
        <path fill="#FFF" d="M43.12 50.461c.871-.587 2.053-.357 2.64.513l15.42 22.858c.587.87.357 2.053-.514 2.64-.87.587-2.052.358-2.64-.513L42.607 53.1c-.587-.87-.357-2.052.513-2.64z"/>
        <path fill="#FFF" d="M62.175 55.067c.658.85.508 2.07-.336 2.736L45.448 70.706c-.837.659-2.049.514-2.708-.322l-.008-.011c-.659-.85-.509-2.07.336-2.736l16.391-12.903c.837-.659 2.049-.514 2.707.322l.009.011z"/>
    </g>
</svg>
