<svg xmlns="http://www.w3.org/2000/svg" width="120" height="120" viewBox="0 0 120 120">
    <g fill="none">
        <g>
            <path fill="#008AA0" d="M12.147.485l-5.76 2.692L7.42 6.766l-.017 1.759c-.372.377-.618.96-.685 1.727l-.092 1.087c-.02.23-.02.47-.008.712l-1.31-2.496-3.929 1.676 3.887 11.742-2.08 2.277 4.747 9.403 1.873-2.505 3.078 5.475.912.208c.41 1.055 2.83 7.409 2.83 7.409l5.022-2.349-1.442-2.062c.065.053.134.107.202.154l.888.621c.653.458 1.28.634 1.819.565l2.493 4.536 6.263-2.93-.01-.047c.12-.027.238-.061.35-.113l.694-.33c1.347-.641 1.557-3.058.467-5.405-.066-.14-.12-.276-.168-.413l3.935-1.867v-.002c.653-.282 1.11-.999 1.203-2.085l.093-1.086c.183-2.112-1.068-4.798-2.792-6.004-1.523-1.065-2.09-3.854-.9-4.42 1.348-.64 1.558-3.058.468-5.404l-.563-1.206c-1.09-2.344-3.068-3.726-4.415-3.088-1.19.565-2.95-1.656-2.791-3.52.183-2.112-1.069-4.799-2.792-6.005l-.888-.621c-1.073-.751-2.078-.749-2.728-.13l-3.532 1.654c-.083-.14-.164-.286-.237-.445C16.207.968 14.323-.393 12.98.1l-.005-.005-.066.032c-.02.01-.042.015-.061.022l-.695.33c-.005.003-.005.005-.007.005zm11.36 20.584c1.926 4.125 1.56 8.37-.819 9.484-2.378 1.113-5.87-1.327-7.796-5.452-1.926-4.125-1.56-8.37.82-9.483 2.378-1.113 5.869 1.326 7.795 5.451z" transform="translate(6.4 36.4)"/>
            <path fill="#00B1BB" d="M13.703 6.897c-.162 1.864-2.083 1.51-3.046-.56-1.09-2.344-3.068-3.727-4.415-3.088l-.695.33c-1.346.641-1.557 3.059-.466 5.405.963 2.072.005 3.792-1.518 2.728C1.839 10.506.292 11.24.11 13.352l-.093 1.086c-.184 2.111 1.068 4.798 2.791 6.004 1.523 1.064 2.09 3.853.9 4.419-1.347.64-1.557 3.058-.467 5.404l.563 1.206c1.09 2.344 3.067 3.727 4.414 3.088 1.191-.565 2.951 1.657 2.792 3.52-.183 2.112 1.069 4.799 2.792 6.005l.887.622c1.724 1.206 3.271.472 3.452-1.64.162-1.864 2.083-1.51 3.046.56 1.09 2.344 3.068 3.727 4.415 3.088l.694-.33c1.348-.641 1.558-3.058.467-5.405-.963-2.072-.004-3.792 1.519-2.728 1.723 1.206 3.27.472 3.451-1.64l.093-1.085c.184-2.112-1.068-4.798-2.792-6.005-1.523-1.064-2.09-3.853-.9-4.418 1.348-.639 1.558-3.059.468-5.405l-.562-1.206c-1.09-2.344-3.069-3.726-4.416-3.088-1.19.565-2.95-1.656-2.791-3.52.183-2.112-1.069-4.799-2.792-6.005l-.887-.621c-1.724-1.204-3.269-.47-3.452 1.639zm9.969 23.5c-.452 5.239-4.288 7.059-8.566 4.067-4.278-2.993-7.38-9.665-6.928-14.9.452-5.239 4.288-7.06 8.566-4.067 4.278 2.99 7.38 9.662 6.928 14.9z" transform="translate(6.4 36.4)"/>
        </g>
        <g>
            <path fill="#8BABE0" d="M32.8 1.6L11.6 12.959 15.974 15.6 30.923 7.47 32.595 4.591z" transform="translate(81.2 87.6)"/>
            <path fill="#8BABE0" d="M20.017 11.142c-3.237-1.947-8.555-2.066-11.879-.267-3.323 1.8-3.392 4.836-.155 6.783s8.556 2.066 11.88.267c3.32-1.8 3.391-4.836.154-6.783z" transform="translate(81.2 87.6)"/>
            <path fill="#D9E9FF" d="M31.387 0L11.6 10.622 15.923 13.2 30.698 5.268 32.8 1.69z" transform="translate(81.2 87.6)"/>
            <path fill="#D9E9FF" d="M19.617 8.742c-3.237-1.947-8.555-2.066-11.879-.267-3.323 1.8-3.392 4.836-.155 6.783s8.555 2.066 11.879.267c3.323-1.8 3.392-4.836.155-6.783z" transform="translate(81.2 87.6)"/>
            <path fill="#BAD4F5" d="M17.498 9.492c-2.313-1.38-6.113-1.463-8.485-.188-2.374 1.274-2.422 3.426-.111 4.804 2.313 1.38 6.11 1.463 8.485.188 2.374-1.274 2.422-3.426.111-4.804z" transform="translate(81.2 87.6)"/>
            <path fill="#8BABE0" d="M12 13.855c-.018.774-1.106 1.375-2.431 1.344-1.326-.03-2.385-.682-2.369-1.454.018-.774 1.106-1.375 2.431-1.344 1.326.03 2.385.682 2.369 1.454z" transform="translate(81.2 87.6)"/>
            <path fill="#C9D5F5" d="M12 14.203c-.43.372-1.257.614-2.201.596-.969-.02-1.8-.308-2.199-.712.963-.783 3.86-.532 4.4.116z" transform="translate(81.2 87.6)"/>
            <path fill="#BAD4F5" d="M31.804.4L16.4 8.857 16.596 9.2 32 .743zM32.196.8L14 11.248 14.204 11.6 32.4 1.152zM32.2 2.4L16.8 11.25 17 11.6 32.4 2.75z" transform="translate(81.2 87.6)"/>
            <path fill="#7989E9" d="M8.435 13.686c-1.341-1.717-3.637-2.553-5.722-1.819C.82 12.534-.033 14.44.001 16.37c.09 4.817 5.864 5.788 8.647 2.513.49-.578-.32-1.447-.814-.865-2.051 2.415-6.556 2.248-6.656-1.622-.102-3.879 4.246-4.646 6.405-1.883.473.602 1.32-.228.852-.826z" transform="translate(81.2 87.6)"/>
            <path fill="#00B1BB" d="M3.14 19.375c.072-.103-.058-.225-.165-.153-1.358.914-4.35 3.383.444 4.815 5.965 1.78 10.706.426 11.948 3.563l.572-3s3.545 1.048 3.243.848c-.3-.2-1.379-3.236-7.487-3.173-5.775.056-10.506-.092-8.554-2.9z" transform="translate(81.2 87.6)"/>
        </g>
        <g>
            <path fill="#008AA0" d="M6.004.233l-2.848 1.3.51 1.734-.008.848c-.183.182-.305.464-.339.835l-.047.524c-.01.112-.01.227-.004.344l-.647-1.204-1.942.808 1.922 5.67-1.028 1.1 2.348 4.541.926-1.21L6.37 18.17l.45.1c.203.51 1.4 3.579 1.4 3.579l2.482-1.135-.713-.995.1.075.439.299c.322.22.634.306.898.273l1.232 2.19 3.096-1.415-.006-.022c.06-.013.119-.03.173-.055l.343-.16c.666-.31.769-1.477.23-2.61-.031-.068-.06-.134-.082-.2l1.947-.902v-.001c.322-.136.547-.483.594-1.007L19 15.66c.09-1.02-.529-2.317-1.38-2.9-.754-.515-1.033-1.86-.444-2.134.665-.31.768-1.478.23-2.61l-.277-.583c-.539-1.133-1.517-1.8-2.183-1.49-.59.272-1.46-.8-1.38-1.7.09-1.02-.53-2.317-1.38-2.9l-.44-.299C11.217.68 10.72.682 10.399.981l-1.746.797c-.041-.066-.08-.137-.118-.214C8.013.467 7.081-.191 6.417.049L6.415.048l-.034.014-.03.011-.343.16c-.002-.002-.002 0-.004 0zm5.619 9.94c.952 1.99.77 4.041-.405 4.579-1.176.537-2.903-.642-3.856-2.633-.952-1.99-.77-4.042.405-4.58 1.176-.536 2.903.642 3.856 2.633z" transform="translate(66.4 10.8)"/>
            <path fill="#00B1BB" d="M6.775 3.323c-.079.9-1.03.73-1.506-.27-.538-1.134-1.517-1.801-2.183-1.491l-.343.16c-.666.309-.769 1.477-.23 2.61.476 1 .003 1.831-.75 1.316C.908 5.065.145 5.42.055 6.44l-.047.524c-.09 1.02.529 2.317 1.38 2.9.754.515 1.033 1.86.444 2.134-.665.31-.77 1.478-.23 2.61l.277.583c.538 1.133 1.517 1.8 2.183 1.49.589-.272 1.459.8 1.38 1.7-.09 1.02.53 2.317 1.38 2.9l.44.3c.853.582 1.616.226 1.706-.793.079-.9 1.03-.73 1.506.271.538 1.133 1.517 1.8 2.182 1.49l.344-.159c.665-.31.768-1.477.23-2.61-.476-1.001-.004-1.831.75-1.316.854.583 1.617.227 1.707-.792l.047-.525c.09-1.019-.529-2.317-1.38-2.9-.754-.515-1.034-1.86-.445-2.134.666-.31.769-1.477.23-2.61l-.277-.583c-.538-1.133-1.517-1.8-2.183-1.49-.588.273-1.458-.8-1.38-1.7.09-1.019-.529-2.317-1.38-2.9l-.439-.299c-.851-.58-1.616-.227-1.706.792zm4.928 11.35c-.223 2.53-2.12 3.407-4.236 1.963C5.35 15.19 3.817 11.969 4.04 9.44c.223-2.53 2.119-3.408 4.236-1.964 2.115 1.445 3.65 4.666 3.426 7.196z" transform="translate(66.4 10.8)"/>
        </g>
        <g>
            <path fill="#A8B4F7" d="M59.436 22.443S45.15 25.818 37.16 7.542c-5.216 6.53-12.939 1.56-17.795-2.834L14.85 0C11.972 1.134 9.134 3.017 6.4 4.99l.603 4.45 1.403 1.839c-6.938 19.709 13.19 48.36 16.564 53.347C28.835 70.345 40.326 81.6 40.326 81.6s4.345-2.11 8.45-4.99c3.513-2.472 24.245-19.849 10.66-54.167z" transform="translate(28.4 19.6)"/>
            <path fill="#D3D9FB" d="M51.013 27.678s-14.301 3.38-22.3-14.924C20.586 22.939 6.376 5.2 6.376 5.2c-17.543 17.452 6.263 59 10.132 64.728 2.649 3.923 6.498 9.372 8.663 12.418 1.017 1.43 2.565 2.208 4.03 2.028 3.113-.39 8.467-1.203 11.14-2.443 3.902-1.814 27.975-19.253 10.672-54.253z" transform="translate(28.4 19.6)"/>
            <path fill="#2536B8" d="M45.112 31.854s-11.303 2.682-17.623-11.855C21.066 28.086 9.84 14 9.84 14c-13.863 13.858 4.948 46.856 8.006 51.406 1.65 2.455 3.923 5.92 5.665 8.59 1.583 2.422 4.19 3.648 6.511 3.057 2.3-.587 5.063-1.373 6.654-2.115 3.086-1.437 22.108-15.288 8.437-43.084z" transform="translate(28.4 19.6)"/>
            <path fill="#1B289E" d="M45.135 31.849S33.889 34.53 27.6 20l.4 57.111c.711.132 1.425.12 2.12-.056 2.29-.587 5.04-1.373 6.622-2.116 3.068-1.436 22-15.29 8.393-43.09z" transform="translate(28.4 19.6)"/>
            <path fill="#FFF" d="M24.065 60.259h-.08c-.766-.024-1.472-.407-1.91-1.034l-8.137-15.67c-.762-1.094-.49-2.596.606-3.354 1.099-.76 2.607-.488 3.369.602l6.28 13.01L37.81 41.769c.834-1.042 2.354-1.214 3.401-.387 1.047.827 1.22 2.344.389 3.386L25.958 59.348c-.46.575-1.155.911-1.893.911z" transform="translate(28.4 19.6)"/>
        </g>
        <g>
            <path fill="#D3D9FB" d="M9.66 1.131C4.967-1.522 1.121.652 1.121 5.978c0 5.325 3.846 11.849 8.537 14.52 4.691 2.654 8.538.48 8.538-4.846 0-5.325-3.847-11.849-8.538-14.52z" transform="translate(81.2 26.4)"/>
            <path fill="#FFF" d="M8.537 1.406C3.847-1.247 0 .926 0 6.252c0 5.326 3.846 11.85 8.537 14.521 4.691 2.654 8.538.48 8.538-4.846 0-5.326-3.828-11.849-8.538-14.52z" transform="translate(81.2 26.4)"/>
            <path fill="#1B289E" d="M7.246 16.712l-3.862-6.21c-.37-.504-.262-1.203.24-1.563.502-.36 1.206-.243 1.576.261l2.241 4 2.912-5.526c.426-.44 1.132-.475 1.58-.045.447.43.493 1.132.067 1.571l-4.754 7.512z" transform="translate(81.2 26.4)"/>
        </g>
    </g>
</svg>
