<svg xmlns="http://www.w3.org/2000/svg" width="121" height="120" viewBox="0 0 121 120">
    <g fill="none" fill-rule="evenodd">
        <g>
            <path fill="#35D6D1" fill-rule="nonzero" d="M32 20.411c.03-2.11-.973-4.011-2.63-4.987L3.682.29C2.275-.54 1.099.473 1.069 2.54L.8 21.062c-.029 1.956.9 3.72 2.44 4.625L26.834 39.59c2.153 1.27 4.894-.57 4.934-3.309l.23-15.87z" transform="translate(.42) translate(82 64)"/>
            <path fill="#F6F6F6" fill-rule="nonzero" d="M31.2 20.811c.03-2.11-.973-4.011-2.63-4.987L2.882.69C1.475-.14.299.873.269 2.94L0 21.462c-.029 1.956.9 3.72 2.44 4.625L26.034 39.99c2.153 1.27 4.894-.57 4.934-3.309l.23-15.87z" transform="translate(.42) translate(82 64)"/>
            <path fill="#FFF" fill-rule="nonzero" d="M17.636 25.958c-1.938-4.283-1.555-8.631.855-9.713 2.41-1.081 5.935 1.514 7.873 5.797 1.938 4.283 1.555 8.631-.855 9.713-2.41 1.081-5.935-1.514-7.873-5.797z" transform="translate(.42) translate(82 64)"/>
            <path fill="#00B1BB" fill-rule="nonzero" d="M19.319 26.297c-.355-.233-.555-.672-.514-1.133.085-.985.608-1.38.991-1.394.155-.007.314.034.47.034.087 0 .176 0 .263.007l.007.002c.07.005.138.012.205.026l.024.005v.002l.102.017v.002l.108-.061c.01-.005.048-.04.053-.027.003-.02-.002-.052-.002-.07l-.015-.609c0-.002.003-.004.003-.007-.085-.156-.157-.327-.208-.52-.036-.133-.058-.263-.072-.394-.236-.164-.304-.6-.337-.893-.027-.235-.07-.807.178-.646l-.015-.1c-.033-.199-.062-.396-.067-.583-.003-.185.022-.359.09-.473.02-.038.055-.069.098-.047-.017-.055-.026-.11-.026-.169.012-.446.315-.489.542-.458.31.04.644.173.962.48.318.306.622.807.769 1.37.02.07.034.151.031.213.027.038.049.088.063.133.07.2.094.404.092.587-.003.182-.032.344-.063.5l-.015.084c.2.175.174.653.155.843-.027.266-.092.643-.35.475-.034.277-.132.491-.294.588l.015.592c0 .028-.003.061 0 .092.01.017.03.043.04.057.058.08.114.162.172.245l.385.453.19.214c.191.214.39.437.538.594.148.152.314.323.447.543.149.247.32.812.448 1.413.133.618-.492 1.135-.991.822l-4.472-2.81zM13.6 16.178L5.648 11.2 5.6 14.222 13.552 19.2z" transform="translate(.42) translate(82 64)"/>
            <path stroke="#FFF" stroke-linecap="round" stroke-linejoin="round" stroke-width="1.252" d="M16.303 26.732c-2.431-5.456-1.852-11.012 1.295-12.41 3.146-1.399 7.667 1.89 10.099 7.346 2.431 5.456 1.852 11.012-1.295 12.41-3.146 1.399-7.667-1.89-10.099-7.346z" transform="translate(.42) translate(82 64)"/>
        </g>
        <g fill-rule="nonzero">
            <path fill="#FFF" stroke="#5565D4" stroke-linejoin="round" stroke-width="2" d="M38.433 81.872c-.077 0-.154-.044-.197-.11-.066-.11-.022-.253.087-.32l10.878-6.334-6.767-3.933c-.077-.044-.11-.121-.11-.199V45.692c0-.132.099-.231.23-.231s.23.099.23.231v25.152l6.986 4.065c.076.045.109.122.109.199 0 .077-.044.154-.11.198L38.543 81.84c-.022.022-.066.033-.11.033z" transform="translate(.42) translate(4.8 31.2)"/>
            <path fill="#FFF" stroke="#5565D4" stroke-linejoin="round" stroke-width="2" d="M64.114 78.16c-.044 0-.077-.012-.11-.034l-16.749-9.75c-.076-.044-.109-.121-.109-.198V42.893c0-.132.098-.231.23-.231.13 0 .23.1.23.231v25.152l16.639 9.684c.11.067.142.21.087.32-.054.066-.13.11-.218.11z" transform="translate(.42) translate(4.8 31.2)"/>
            <path fill="#FFF" stroke="#5565D4" stroke-linejoin="round" stroke-width="2" d="M59.28 69.742c-.044 0-.076-.011-.11-.033l-7.106-4.132c-.076-.044-.109-.121-.109-.198V40.095c0-.133.099-.232.23-.232.13 0 .23.1.23.232v25.152l6.876 3.999 11.097-6.456c.11-.055.251-.022.317.088.065.11.022.253-.088.32L59.411 69.72c-.054.01-.098.022-.13.022z" transform="translate(.42) translate(4.8 31.2)"/>
            <path fill="#008AA0" d="M57.524 54.712l-3.032-1.758-10.061 5.889 3.032 1.757c.677.394 1.289.433 1.744.17l10.061-5.888c-.455.262-1.067.223-1.744-.17z" transform="translate(.42) translate(4.8 31.2)"/>
            <path fill="#008AA0" d="M49.594 56.462l-.614.672c0 1.982-.689 4.14-2.268 3.141l-3.572-2.231-1.548 2.448 5.105 3.197c3.626.838 4.298 0 5.641-3.497V58.16l-2.744-1.698z" transform="translate(.42) translate(4.8 31.2)"/>
            <path fill="#D3D9FB" d="M73.38 2.758c-2.277-1.338-5.388-1.167-8.811.813-1.81 1.05-3.514 2.506-5.063 4.224l12.716 7.45c1.549-1.719 3.254-3.175 5.063-4.224 3.423-1.98 6.52-2.15 8.811-.813L73.38 2.758z" transform="translate(.42) translate(4.8 31.2)"/>
            <path fill="#D3D9FB" d="M57.712 5.798c-1.523-.891-3.606-.787-5.896.551-.352.197-.703.433-1.042.682l12.717 7.45c.338-.25.69-.485 1.04-.682 2.292-1.338 4.374-1.443 5.897-.55l-12.716-7.45z" transform="translate(.42) translate(4.8 31.2)"/>
            <path fill="#D3D9FB" d="M47.557.724c-1.913-1.115-4.516-.984-7.393.682-5.258 3.056-9.592 10.191-10.386 16.697l12.716 7.45c.78-6.506 5.115-13.641 10.386-16.697 2.877-1.666 5.48-1.81 7.393-.682L47.557.724z" transform="translate(.42) translate(4.8 31.2)"/>
            <path fill="#7989E9" d="M33.136 8.74c-1.757 2.912-2.968 6.217-3.358 9.365l12.716 7.45c.377-3.174 1.614-6.48 3.37-9.404L33.137 8.74z" transform="translate(.42) translate(4.8 31.2)"/>
            <path fill="#D3D9FB" d="M29.79 18.116c-1.327.105-2.785.577-4.308 1.469-5.882 3.41-10.672 11.673-11.05 18.848l12.716 7.45c.39-7.162 5.168-15.425 11.05-18.848 1.523-.892 2.981-1.364 4.309-1.47L29.79 18.117z" transform="translate(.42) translate(4.8 31.2)"/>
            <path fill="#7989E9" d="M17.871 27.626c-1.965 3.384-3.254 7.226-3.45 10.794l12.717 7.45c.195-3.58 1.484-7.45 3.462-10.834l-12.729-7.41z" transform="translate(.42) translate(4.8 31.2)"/>
            <path fill="#D3D9FB" d="M14.421 38.422c-1.21.13-2.525.564-3.904 1.364C4.673 43.183-.04 51.603 0 58.62c.026 3.554 1.263 6.06 3.241 7.214l12.716 7.45c-1.978-1.155-3.215-3.66-3.24-7.214-.04-7.017 4.672-15.437 10.516-18.834 1.38-.8 2.694-1.233 3.904-1.364l-12.716-7.45z" transform="translate(.42) translate(4.8 31.2)"/>
            <path fill="#7989E9" d="M12.73 66.08c-.014-2.165.429-4.46 1.21-6.703l-12.73-7.41C.43 54.197 0 56.479.014 58.617c.026 3.554 1.263 6.059 3.241 7.213l12.716 7.45c-1.991-1.154-3.228-3.646-3.24-7.2z" transform="translate(.42) translate(4.8 31.2)"/>
            <path fill="#A8B4F7" d="M77.3 11.034c-1.81 1.049-3.515 2.505-5.064 4.223-1.353-2.715-4.282-3.436-7.705-1.456-.351.197-.703.433-1.041.682-.443-6.335-5.024-8.853-10.608-5.627-5.258 3.056-9.592 10.191-10.386 16.697-1.327.105-2.785.577-4.308 1.469-5.883 3.41-10.673 11.673-11.05 18.847-1.21.131-2.525.564-3.905 1.364-5.844 3.397-10.555 11.818-10.516 18.835.039 7.003 4.802 9.928 10.66 6.531l54.065-31.386c6.95-4.04 12.56-14.073 12.509-22.402-.04-8.341-5.701-11.817-12.652-7.777z" transform="translate(.42) translate(4.8 31.2)"/>
            <path fill="#FFF" d="M33.212 42.686L33.212 52.232 41.008 47.456 41.19 38.039z" transform="translate(.42) translate(4.8 31.2)"/>
            <path fill="#FFF" d="M29.933 51.85c.195.13 7.337 4.646 7.337 4.646l7.176-12.285-14.513 7.638zM69.704 24.318L69.704 33.864 77.5 29.088 77.682 19.671z" transform="translate(.42) translate(4.8 31.2)"/>
            <path fill="#FFF" d="M66.424 33.481c.195.132 7.337 4.647 7.337 4.647l7.176-12.285-14.513 7.638z" transform="translate(.42) translate(4.8 31.2)"/>
            <path fill="#008AA0" d="M51.68 38.029L49.337 36.665 49.338 57.623 51.681 59z" transform="translate(.42) translate(4.8 31.2)"/>
            <path fill="#35D6D1" d="M48.075 40.04L45.732 38.676 54.179 20.983 56.522 22.347z" transform="translate(.42) translate(4.8 31.2)"/>
            <path fill="#00B1BB" d="M61.522 32.188l3.449-2.007-8.512-7.83-8.447 17.693 3.449-2.006.206 22.513c0 1.508-.533 2.584-1.392 3.082l10.06-5.889c.86-.498 1.393-1.574 1.393-3.082l-.206-22.474z" transform="translate(.42) translate(4.8 31.2)"/>
        </g>
        <g fill-rule="nonzero">
            <path fill="#7989E9" d="M1.437 14.57l14.076-8.64c.41-.252 1.386-.97 1.749-.812l.272.188 3.609 2.213-2.84 3.97-.07 3.8c-.042 2.436-1.65 5.392-3.572 6.571L7.92 26l-3.224 5.049-3.707-2.06c-.062-.04-.12-.085-.179-.135l-.012-.008v-.002c-.514-.452-.817-1.263-.796-2.362l.172-9.586c.015-.86.585-1.908 1.264-2.326z" transform="translate(.42) translate(19.6 18.8)"/>
            <path fill="#D3D9FB" d="M6.83 30.765l11.048-6.324c1.887-1.08 3.468-3.956 3.51-6.391l.173-9.586c.015-.863-.518-1.255-1.187-.873L4.89 16.453c-.667.382-1.228 1.4-1.243 2.263l-.172 9.586c-.042 2.435 1.467 3.544 3.354 2.463z" transform="translate(.42) translate(19.6 18.8)"/>
            <path fill="#FFF" d="M19.247 21.062c.34-.005.624-.28.631-.614l.172-9.588c.005-.334-.268-.603-.609-.598-.34.006-.624.281-.63.615l-.173 9.588c-.007.333.267.602.609.597z" transform="translate(.42) translate(19.6 18.8)"/>
            <path fill="#1B289E" d="M4.54 14.392c.749.402 2.055.353 2.915-.11.861-.462.953-1.162.203-1.564-.75-.402-2.054-.352-2.914.11-.86.462-.951 1.164-.203 1.564z" transform="translate(.42) translate(19.6 18.8)"/>
            <path fill="#2536B8" d="M4.605 13.874c.748.402 2.053.352 2.913-.11.86-.462.953-1.162.203-1.564-.75-.402-2.053-.353-2.914.11-.86.463-.95 1.163-.202 1.564z" transform="translate(.42) translate(19.6 18.8)"/>
            <path fill="#1B289E" d="M12.912 8.919c-.063-.601.809-1.184 1.949-1.303 1.139-.119 2.114.272 2.177.873.064.6-.809 1.184-1.948 1.302-1.14.12-2.115-.272-2.178-.872z" transform="translate(.42) translate(19.6 18.8)"/>
            <path fill="#2536B8" d="M13.49 9.03c.747.401 2.053.352 2.913-.11.86-.462.953-1.162.203-1.565-.748-.402-2.054-.352-2.914.11-.86.464-.951 1.164-.203 1.564z" transform="translate(.42) translate(19.6 18.8)"/>
            <path fill="#D3D9FB" d="M5.006 13.317c.502.269 1.376.236 1.952-.073.576-.31.638-.78.136-1.048-.502-.269-1.376-.236-1.952.074-.577.31-.637.778-.136 1.047zM14.04 8.462c.503.269 1.377.236 1.953-.073.576-.31.638-.779.136-1.048-.503-.269-1.376-.236-1.953.074-.576.31-.636.779-.136 1.047z" transform="translate(.42) translate(19.6 18.8)"/>
            <path fill="#D3D9FB" d="M7.415 12.602l.078-4.382c-.088-1.545.865-3.816 2.39-4.657l1.576-.87c.55-.302 1.069-.383 1.462-.225.305.121.55.387.704.756.112.267.155.562.148.865l-.086 3.74c.1.646 2.859.547 2.76-.1l-.054-4.416C16.17 1.87 15.338.758 14.108.27c-1.173-.468-2.6-.32-3.915.404l-1.577.869c-2.503 1.38-3.808 3.72-3.951 7.173l.002 4.195c.093.582 2.848.339 2.748-.308z" transform="translate(.42) translate(19.6 18.8)"/>
            <path fill="#2536B8" d="M14.747 17.043c.007-1.112-.889-1.528-2.002-.93-1.113.6-2.02 1.986-2.028 3.097-.007 1.112.89 1.528 2.002.93 1.113-.6 2.02-1.986 2.028-3.097z" transform="translate(.42) translate(19.6 18.8)"/>
            <path fill="#2536B8" d="M13.012 16.863l-.145.052c-.531.188-.965 1.05-.965 1.918l.005 2.69c.002.868.439 1.425.97 1.236l.145-.051c.531-.188.965-1.05.965-1.919l-.005-2.69c-.002-.866-.439-1.422-.97-1.236z" transform="translate(.42) translate(19.6 18.8)"/>
            <path fill="#1B289E" d="M12.845 20.7l-.003-1.779c.46-.616.76-1.34.763-1.973.004-.474-.16-.822-.433-1.019.906-.292 1.582.148 1.575 1.113-.003.635-.302 1.357-.763 1.973l.003 1.778c.002.868-.432 1.73-.965 1.919l-.144.051c-.295.105-.56-.02-.738-.3.407-.33.707-1.045.705-1.764z" transform="translate(.42) translate(19.6 18.8)"/>
        </g>
    </g>
</svg>
